<?xml version="1.0" encoding="UTF-8"?>
<svg version="1.1" xmlns="http://www.w3.org/2000/svg" width="543" height="325">
<path d="M0 0 C-0.64035305 3.9876531 -2.74645144 6.9753419 -4.875 10.3125 C-8.86526339 16.75326598 -12.22013662 23.39403317 -15.4375 30.25 C-31.51047571 64.42610396 -50.37437011 99.15850504 -88.01025391 112.72460938 C-104.78485046 118.10771861 -125.50472219 119.54123086 -142 113 C-132.46019248 93.00699913 -132.46019248 93.00699913 -126 85 C-125.34 85 -124.68 85 -124 85 C-123.814375 84.34 -123.62875 83.68 -123.4375 83 C-121.39191226 78.73094732 -118.42815357 75.25836294 -115 72 C-114.34 72 -113.68 72 -113 72 C-113 71.34 -113 70.68 -113 70 C-112.34 70 -111.68 70 -111 70 C-110.01 68.02 -110.01 68.02 -109 66 C-108.34 66 -107.68 66 -107 66 C-107 65.34 -107 64.68 -107 64 C-105.43059199 62.56187327 -103.79125965 61.1996995 -102.125 59.875 C-100.62453125 58.67423828 -100.62453125 58.67423828 -99.09375 57.44921875 C-97.56234375 56.23685547 -97.56234375 56.23685547 -96 55 C-94.20801911 53.56289173 -92.41632975 52.12541982 -90.625 50.6875 C-89.08360503 49.45799264 -87.54194395 48.22881881 -86 47 C-84.33310559 45.66695139 -82.6663794 44.33369234 -81 43 C-91.17528057 48.77483341 -100.87743022 54.63792614 -110 62 C-110.78818115 62.62793457 -110.78818115 62.62793457 -111.59228516 63.26855469 C-134.16030749 81.33100626 -150.40894316 103.84703779 -155 133 C-155.4916808 137.65967718 -155.78795545 142.32301114 -156.0625 147 C-156.10490814 147.66632446 -156.14731628 148.33264893 -156.19100952 149.01916504 C-156.76814675 158.1119121 -157.06946407 167.18647572 -157.171875 176.296875 C-157.19132423 177.72416931 -157.19132423 177.72416931 -157.21116638 179.18029785 C-157.27452261 183.89947226 -157.31235885 188.61633503 -157.30688477 193.3359375 C-157.32467453 195.07292729 -157.3434271 196.80990758 -157.36328125 198.546875 C-157.34784271 199.74168488 -157.34784271 199.74168488 -157.33209229 200.96063232 C-157.40175053 204.83580809 -157.65865743 206.62634246 -160.31323242 209.53222656 C-163.98015269 211.53545461 -166.03226779 211.10214784 -170 210 C-172.12752233 208.39352045 -172.90112019 207.53246915 -173.39199829 204.88908386 C-173.40008514 204.07385757 -173.408172 203.25863129 -173.41650391 202.41870117 C-173.43307037 201.48889938 -173.44963684 200.5590976 -173.46670532 199.60112 C-173.47158463 198.08733513 -173.47158463 198.08733513 -173.4765625 196.54296875 C-173.49993179 194.96289787 -173.49993179 194.96289787 -173.52377319 193.35090637 C-173.5713517 189.96311367 -173.59897352 186.57552076 -173.625 183.1875 C-173.67405564 178.78507943 -173.73070927 174.38277504 -173.7890625 169.98046875 C-173.80959938 168.34878754 -173.80959938 168.34878754 -173.83055115 166.68414307 C-174.38699784 127.20346877 -177.25456428 88.82953666 -205.75 58.8125 C-221.92923974 43.30428864 -244.48672621 33.83900399 -267 33 C-268.24265625 32.9484375 -269.4853125 32.896875 -270.765625 32.84375 C-286.96859762 32.40444082 -303.44293425 34.37226525 -319 39 C-318.34 40.32 -317.68 41.64 -317 43 C-316.34 43 -315.68 43 -315 43 C-308.84726201 49.95147071 -303.69743019 57.82742088 -298.5 65.5 C-286.07446057 84.34302057 -286.07446057 84.34302057 -270.23828125 100.15234375 C-269.13033203 101.06693359 -269.13033203 101.06693359 -268 102 C-268 102.66 -268 103.32 -268 104 C-267.2575 104.27328125 -266.515 104.5465625 -265.75 104.828125 C-263.18129959 105.92274165 -261.24755876 107.11700809 -259 108.75 C-241.27489873 120.68315521 -218.77392413 125.24732017 -197.69921875 121.28125 C-195.35945976 120.75644425 -193.02824464 120.18952126 -190.71484375 119.55859375 C-188.00137134 119.00028216 -186.57134412 119.06888978 -184 120 C-184 121.65 -184 123.3 -184 125 C-203.27674464 133.83517463 -227.81061013 130.7861819 -247.16748047 123.70751953 C-274.34664356 113.21388582 -290.24888188 90.766445 -306.12304688 67.72119141 C-308.62595922 64.09248941 -311.14376331 60.47518994 -313.6875 56.875 C-314.41324219 55.84117188 -315.13898438 54.80734375 -315.88671875 53.7421875 C-317.98648881 50.89146273 -317.98648881 50.89146273 -320.76953125 48.2578125 C-323 46 -323 46 -323 44 C-323.66 44 -324.32 44 -325 44 C-325 43.34 -325 42.68 -325 42 C-325.639375 41.773125 -326.27875 41.54625 -326.9375 41.3125 C-329 40 -329 40 -329.75 37.375 C-329.8325 36.59125 -329.915 35.8075 -330 35 C-325.2194259 32.83765269 -320.60835347 31.21977978 -315.5 29.9375 C-314.2521875 29.61652344 -313.004375 29.29554687 -311.71875 28.96484375 C-300.16888946 26.41887154 -288.61141602 25.60858775 -276.8125 25.625 C-275.80860229 25.62581573 -275.80860229 25.62581573 -274.78442383 25.62664795 C-249.34835954 25.72104018 -225.04174786 32.77572792 -205 49 C-205 49.66 -205 50.32 -205 51 C-204.42894531 51.2475 -203.85789062 51.495 -203.26953125 51.75 C-195.33405805 56.12065649 -189.79337045 64.55398765 -185 72 C-184.51015625 72.721875 -184.0203125 73.44375 -183.515625 74.1875 C-174.52971057 88.10117396 -169.72411443 104.01137408 -166 120 C-165.81824219 119.45472656 -165.63648438 118.90945312 -165.44921875 118.34765625 C-165.19785156 117.59355469 -164.94648438 116.83945313 -164.6875 116.0625 C-164.41679687 115.23669434 -164.14609375 114.41088867 -163.8671875 113.56005859 C-163.32257482 111.95228592 -162.74851988 110.35388301 -162.1328125 108.77197266 C-159.88531831 102.82547761 -159.74964505 97.68050296 -160 91.375 C-160.40580654 69.21499823 -153.6437858 48.59296653 -138.25708008 32.29760742 C-101.35673758 -5.74391814 -49.64359026 -10.40019349 0 0 Z " fill="#090909" transform="translate(438,52)"/>
<path d="M0 0 C1.00389771 0.00081573 1.00389771 0.00081573 2.02807617 0.00164795 C27.46414046 0.09604018 51.77075214 7.15072792 71.8125 23.375 C71.8125 24.035 71.8125 24.695 71.8125 25.375 C72.38355469 25.6225 72.95460938 25.87 73.54296875 26.125 C83.55754966 31.64077606 90.65972942 43.48168049 95.8125 53.375 C95.8125 54.035 95.8125 54.695 95.8125 55.375 C93.3375 55.87 93.3375 55.87 90.8125 56.375 C90.4825 57.365 90.1525 58.355 89.8125 59.375 C89.19375 58.24964844 89.19375 58.24964844 88.5625 57.1015625 C75.99250246 34.82348651 58.18554208 18.95898422 33.54101562 11.70654297 C25.79468957 9.60705589 17.85414665 7.6746887 9.8125 7.375 C7.94851562 7.29765625 7.94851562 7.29765625 6.046875 7.21875 C-10.15609762 6.77944082 -26.63043425 8.74726525 -42.1875 13.375 C-41.5275 14.695 -40.8675 16.015 -40.1875 17.375 C-39.5275 17.375 -38.8675 17.375 -38.1875 17.375 C-32.03476201 24.32647071 -26.88493019 32.20242088 -21.6875 39.875 C-9.26196057 58.71802057 -9.26196057 58.71802057 6.57421875 74.52734375 C7.68216797 75.44193359 7.68216797 75.44193359 8.8125 76.375 C8.8125 77.035 8.8125 77.695 8.8125 78.375 C9.555 78.64828125 10.2975 78.9215625 11.0625 79.203125 C13.63120041 80.29774165 15.56494124 81.49200809 17.8125 83.125 C35.53760127 95.05815521 58.03857587 99.62232017 79.11328125 95.65625 C81.45304024 95.13144425 83.78425536 94.56452126 86.09765625 93.93359375 C88.81112866 93.37528216 90.24115588 93.44388978 92.8125 94.375 C92.8125 96.025 92.8125 97.675 92.8125 99.375 C73.53575536 108.21017463 49.00188987 105.1611819 29.64501953 98.08251953 C2.46585644 87.58888582 -13.43638188 65.141445 -29.31054688 42.09619141 C-31.81345922 38.46748941 -34.33126331 34.85018994 -36.875 31.25 C-37.60074219 30.21617188 -38.32648438 29.18234375 -39.07421875 28.1171875 C-41.17398881 25.26646273 -41.17398881 25.26646273 -43.95703125 22.6328125 C-46.1875 20.375 -46.1875 20.375 -46.1875 18.375 C-46.8475 18.375 -47.5075 18.375 -48.1875 18.375 C-48.1875 17.715 -48.1875 17.055 -48.1875 16.375 C-48.826875 16.148125 -49.46625 15.92125 -50.125 15.6875 C-52.1875 14.375 -52.1875 14.375 -52.9375 11.75 C-53.02 10.96625 -53.1025 10.1825 -53.1875 9.375 C-48.4069259 7.21265269 -43.79585347 5.59477978 -38.6875 4.3125 C-37.4396875 3.99152344 -36.191875 3.67054687 -34.90625 3.33984375 C-23.35638946 0.79387154 -11.79891602 -0.01641225 0 0 Z " fill="#282828" transform="translate(161.1875,77.625)"/>
<path d="M0 0 C4.27257498 1.39618184 8.47785597 2.92558353 12.6875 4.5 C28.97347486 10.23902856 46.54732216 11.12345759 63.28515625 6.55859375 C65.99862866 6.00028216 67.42865588 6.06888978 70 7 C70 8.65 70 10.3 70 12 C51.26577071 20.58652176 27.62887718 17.83504575 8.6640625 11.375 C3.91013818 9.59101134 -0.58083013 7.49640606 -5 5 C-4.67 4.34 -4.34 3.68 -4 3 C-2.02 3.495 -2.02 3.495 0 4 C0 2.68 0 1.36 0 0 Z " fill="#313131" transform="translate(184,165)"/>
<path d="M0 0 C7.66500449 5.60853987 12.65411822 13.65590698 17 22 C17 22.66 17 23.32 17 24 C15.35 24.33 13.7 24.66 12 25 C11.67 25.99 11.34 26.98 11 28 C10.5875 27.24976563 10.175 26.49953125 9.75 25.7265625 C6.15001154 19.34622582 2.30876549 13.57686693 -2.3984375 7.9609375 C-4 6 -4 6 -5 4 C-4.360625 3.71125 -3.72125 3.4225 -3.0625 3.125 C-0.84793921 2.17176549 -0.84793921 2.17176549 0 0 Z " fill="#2C2C2C" transform="translate(240,109)"/>
<path d="M0 0 C4.26338477 1.61630467 5.96908653 4.88268527 8.41796875 8.59765625 C9.1459668 9.6350293 9.1459668 9.6350293 9.88867188 10.69335938 C13.06374448 15.39246683 14.65936017 19.46664437 15.73046875 25.03515625 C14.41046875 25.36515625 13.09046875 25.69515625 11.73046875 26.03515625 C7.57750637 20.86732204 3.61304598 15.57731933 -0.20703125 10.16015625 C-0.60849365 9.60110596 -1.00995605 9.04205566 -1.42358398 8.46606445 C-4.26953125 4.38549194 -4.26953125 4.38549194 -4.26953125 1.03515625 C-2.26953125 0.03515625 -2.26953125 0.03515625 0 0 Z " fill="#252525" transform="translate(136.26953125,115.96484375)"/>
<path d="M0 0 C5.91305524 0.31121343 11.19672919 1.52308481 16.8125 3.375 C17.78135132 3.68860474 17.78135132 3.68860474 18.76977539 4.00854492 C22.31445546 5.21841684 25.15571597 6.54976036 28 9 C27.34 9 26.68 9 26 9 C26 10.65 26 12.3 26 14 C21.76175176 13.28151601 17.86675835 11.97833945 13.8125 10.5625 C7.94027624 8.54741524 2.14636551 6.96895645 -4 6 C-4 5.67 -4 5.34 -4 5 C-1.03 4.34 1.94 3.68 5 3 C2.525 2.01 2.525 2.01 0 1 C0 0.67 0 0.34 0 0 Z " fill="#313131" transform="translate(184,80)"/>
<path d="M0 0 C5.79314435 2.21865103 11.18954264 5.03601797 16 9 C16.33 9.99 16.66 10.98 17 12 C16.67 12.66 16.34 13.32 16 14 C11.74197853 14.7569816 9.84877867 14.51882449 6.0859375 12.21875 C3.339086 10.20297268 0.64724432 8.14460299 -2 6 C-1.125 1.125 -1.125 1.125 0 0 Z " fill="#2C2C2C" transform="translate(168,155)"/>
<path d="M0 0 C0.33 0 0.66 0 1 0 C1.023936 13.07792107 1.04423855 26.15666871 0.84741211 39.23339844 C0.82377707 41.10635095 0.80973368 42.9794449 0.80444336 44.85253906 C0.79520478 47.61084729 0.7544671 50.36711773 0.70703125 53.125 C0.71293022 54.37796875 0.71293022 54.37796875 0.71894836 55.65625 C0.61483337 59.76939259 0.52580183 61.41390771 -2.3059082 64.5703125 C-5.89774171 66.4764092 -8.12081127 65.91275029 -12 65 C-12 64.67 -12 64.34 -12 64 C-9.36 64 -6.72 64 -4 64 C-3.67 63.01 -3.34 62.02 -3 61 C-2.34 61 -1.68 61 -1 61 C-1.00222061 60.36852554 -1.00444122 59.73705109 -1.00672913 59.08644104 C-1.02894104 52.48349577 -1.04397271 45.88056122 -1.05493164 39.27758789 C-1.0599444 36.81697152 -1.06675631 34.35635811 -1.07543945 31.89575195 C-1.08763932 28.34846261 -1.09325903 24.80121283 -1.09765625 21.25390625 C-1.10281754 20.1629213 -1.10797882 19.07193634 -1.11329651 17.94789124 C-1.11373713 11.87863719 -0.79599215 6.01814136 0 0 Z " fill="#727272" transform="translate(280,197)"/>
<path d="M0 0 C3.9252025 3.70090521 6.94580156 7.54959656 10 12 C9.67 12.66 9.34 13.32 9 14 C7.02 14.33 5.04 14.66 3 15 C0.36 11.37 -2.28 7.74 -5 4 C-4.34 3.67 -3.68 3.34 -3 3 C-3 3.66 -3 4.32 -3 5 C-0.7763932 3.0745356 -0.7763932 3.0745356 0 0 Z " fill="#303030" transform="translate(128,103)"/>
<path d="M0 0 C3.72433382 1.2125738 7.37802806 2.50859979 11 4 C9.02 6.97 9.02 6.97 7 10 C5.55903414 9.57405412 4.12231288 9.13373367 2.6875 8.6875 C1.88699219 8.44386719 1.08648437 8.20023438 0.26171875 7.94921875 C-2.09964573 6.95817977 -3.33879993 5.91925057 -5 4 C-4.01 3.67 -3.02 3.34 -2 3 C-1.34 3.33 -0.68 3.66 0 4 C0 2.68 0 1.36 0 0 Z " fill="#383838" transform="translate(184,165)"/>
<path d="M0 0 C5.75 1.75 5.75 1.75 8 4 C8.125 7.125 8.125 7.125 8 10 C7.01 10.33 6.02 10.66 5 11 C5 10.34 5 9.68 5 9 C4.01 9 3.02 9 2 9 C0.25 7.3125 0.25 7.3125 -1 5 C-0.6875 2.25 -0.6875 2.25 0 0 Z " fill="#1A1A1A" transform="translate(120,97)"/>
<path d="M0 0 C3.63559661 3.43361902 6.36113346 6.7973607 9 11 C7.68 11 6.36 11 5 11 C4.67 12.32 4.34 13.64 4 15 C1.5 12.6875 1.5 12.6875 -1 10 C-1 9.01 -1 8.02 -1 7 C-0.01 7 0.98 7 2 7 C1.34 4.69 0.68 2.38 0 0 Z " fill="#393939" transform="translate(150,134)"/>
<path d="M0 0 C0.66 2.31 1.32 4.62 2 7 C-0.8125 7.25 -0.8125 7.25 -4 7 C-5.875 5.1875 -5.875 5.1875 -7 3 C-7 2.01 -7 1.02 -7 0 C-4.3333581 -1.33332095 -2.83319697 -0.67102033 0 0 Z " fill="#1C1C1C" transform="translate(139,117)"/>
<path d="M0 0 C5.75 0.875 5.75 0.875 8 2 C8.625 4.0625 8.625 4.0625 9 6 C5.67465243 7.10844919 3.37817425 6.84454356 0 6 C-1.125 2.25 -1.125 2.25 0 0 Z " fill="#1D1D1D" transform="translate(210,89)"/>
<path d="M0 0 C2 1.375 2 1.375 4 3 C4 3.66 4 4.32 4 5 C4.66 5 5.32 5 6 5 C6.33 5.99 6.66 6.98 7 8 C5.68 8 4.36 8 3 8 C2.01 9.485 2.01 9.485 1 11 C-0.5 9.625 -0.5 9.625 -2 8 C-2 7.34 -2 6.68 -2 6 C-2.66 5.67 -3.32 5.34 -4 5 C-2.68 4.67 -1.36 4.34 0 4 C0 2.68 0 1.36 0 0 Z " fill="#353535" transform="translate(117,90)"/>
<path d="M0 0 C1.98 1.65 3.96 3.3 6 5 C5.67 5.66 5.34 6.32 5 7 C3.33333333 7 1.66666667 7 0 7 C-0.33 7.66 -0.66 8.32 -1 9 C-2.32 7.35 -3.64 5.7 -5 4 C-4.360625 3.71125 -3.72125 3.4225 -3.0625 3.125 C-0.84793921 2.17176549 -0.84793921 2.17176549 0 0 Z " fill="#424242" transform="translate(240,109)"/>
<path d="M0 0 C2.6875 0.3125 2.6875 0.3125 5 1 C5.33 1.99 5.66 2.98 6 4 C5.67 4.66 5.34 5.32 5 6 C2.69 6 0.38 6 -2 6 C-2.33 5.01 -2.66 4.02 -3 3 C-1.8125 1.4375 -1.8125 1.4375 0 0 Z " fill="#202020" transform="translate(179,163)"/>
<path d="M0 0 C3.465 1.485 3.465 1.485 7 3 C5.68 3.33 4.36 3.66 3 4 C2.67 5.32 2.34 6.64 2 8 C-0.475 7.01 -0.475 7.01 -3 6 C-3 5.01 -3 4.02 -3 3 C-2.01 2.67 -1.02 2.34 0 2 C0 1.34 0 0.68 0 0 Z " fill="#3A3A3A" transform="translate(218,92)"/>
<path d="M0 0 C2.97 0.33 5.94 0.66 9 1 C8 5 8 5 6 7 C6 5.68 6 4.36 6 3 C4.02 2.34 2.04 1.68 0 1 C0 0.67 0 0.34 0 0 Z " fill="#606060" transform="translate(429,51)"/>
<path d="M0 0 C0.33 0 0.66 0 1 0 C1.33 1.98 1.66 3.96 2 6 C1.01 6.33 0.02 6.66 -1 7 C-1.66 7.66 -2.32 8.32 -3 9 C-3.66 9 -4.32 9 -5 9 C-3.50164236 5.88802644 -1.86022073 2.91164984 0 0 Z " fill="#414141" transform="translate(312,137)"/>
<path d="M0 0 C2.97 0.495 2.97 0.495 6 1 C3.7448078 3.2551922 1.9952413 3.97723468 -1 5 C-1.99 5 -2.98 5 -4 5 C-4.33 4.01 -4.66 3.02 -5 2 C-2.525 2.495 -2.525 2.495 0 3 C0 2.01 0 1.02 0 0 Z " fill="#555555" transform="translate(353,159)"/>
<path d="M0 0 C0.66 0.99 1.32 1.98 2 3 C-3.75 8 -3.75 8 -6 8 C-4.55746343 4.63408134 -2.66735273 2.48952921 0 0 Z " fill="#424242" transform="translate(322,126)"/>
<path d="M0 0 C1.32 0 2.64 0 4 0 C4.33 0.99 4.66 1.98 5 3 C4.34 3.66 3.68 4.32 3 5 C2.01 5 1.02 5 0 5 C0 3.35 0 1.7 0 0 Z " fill="#080808" transform="translate(155,145)"/>
<path d="M0 0 C0.66 0.33 1.32 0.66 2 1 C0.02 3.97 0.02 3.97 -2 7 C-3.32 6.34 -4.64 5.68 -6 5 C-4.02 3.35 -2.04 1.7 0 0 Z " fill="#5F5F5F" transform="translate(349,101)"/>
<path d="M0 0 C-4.75 3.875 -4.75 3.875 -7 5 C-7 3.68 -7 2.36 -7 1 C-4.53721199 -0.231394 -2.7204945 -0.07159196 0 0 Z " fill="#5F5F5F" transform="translate(339,105)"/>
<path d="M0 0 C0.66 0.33 1.32 0.66 2 1 C1.375 2.9375 1.375 2.9375 0 5 C-3.125 5.75 -3.125 5.75 -6 6 C-4 4 -2 2 0 0 Z " fill="#4A4A4A" transform="translate(318,68)"/>
<path d="" fill="#FFFFFF" transform="translate(0,0)"/>
<path d="" fill="#FFFFFF" transform="translate(0,0)"/>
<path d="" fill="#FFFFFF" transform="translate(0,0)"/>
<path d="" fill="#FFFFFF" transform="translate(0,0)"/>
<path d="" fill="#FFFFFF" transform="translate(0,0)"/>
<path d="" fill="#FFFFFF" transform="translate(0,0)"/>
<path d="" fill="#FFFFFF" transform="translate(0,0)"/>
<path d="" fill="#FFFFFF" transform="translate(0,0)"/>
<path d="" fill="#FFFFFF" transform="translate(0,0)"/>
<path d="" fill="#FFFFFF" transform="translate(0,0)"/>
<path d="" fill="#FFFFFF" transform="translate(0,0)"/>
<path d="" fill="#FFFFFF" transform="translate(0,0)"/>
<path d="" fill="#FFFFFF" transform="translate(0,0)"/>
<path d="" fill="#FFFFFF" transform="translate(0,0)"/>
<path d="" fill="#FFFFFF" transform="translate(0,0)"/>
<path d="" fill="#FFFFFF" transform="translate(0,0)"/>
<path d="" fill="#FFFFFF" transform="translate(0,0)"/>
<path d="" fill="#FFFFFF" transform="translate(0,0)"/>
<path d="" fill="#FFFFFF" transform="translate(0,0)"/>
<path d="" fill="#FFFFFF" transform="translate(0,0)"/>
<path d="" fill="#FFFFFF" transform="translate(0,0)"/>
<path d="" fill="#FFFFFF" transform="translate(0,0)"/>
<path d="" fill="#FFFFFF" transform="translate(0,0)"/>
<path d="" fill="#FFFFFF" transform="translate(0,0)"/>
<path d="" fill="#FFFFFF" transform="translate(0,0)"/>
<path d="" fill="#FFFFFF" transform="translate(0,0)"/>
<path d="" fill="#FFFFFF" transform="translate(0,0)"/>
<path d="" fill="#FFFFFF" transform="translate(0,0)"/>
<path d="" fill="#FFFFFF" transform="translate(0,0)"/>
<path d="" fill="#FFFFFF" transform="translate(0,0)"/>
<path d="" fill="#FFFFFF" transform="translate(0,0)"/>
<path d="" fill="#FFFFFF" transform="translate(0,0)"/>
<path d="" fill="#FFFFFF" transform="translate(0,0)"/>
<path d="" fill="#FFFFFF" transform="translate(0,0)"/>
<path d="" fill="#FFFFFF" transform="translate(0,0)"/>
<path d="" fill="#FFFFFF" transform="translate(0,0)"/>
<path d="" fill="#FFFFFF" transform="translate(0,0)"/>
<path d="" fill="#FFFFFF" transform="translate(0,0)"/>
<path d="" fill="#FFFFFF" transform="translate(0,0)"/>
<path d="" fill="#FFFFFF" transform="translate(0,0)"/>
<path d="" fill="#FFFFFF" transform="translate(0,0)"/>
<path d="" fill="#FFFFFF" transform="translate(0,0)"/>
<path d="" fill="#FFFFFF" transform="translate(0,0)"/>
<path d="" fill="#FFFFFF" transform="translate(0,0)"/>
<path d="" fill="#FFFFFF" transform="translate(0,0)"/>
<path d="" fill="#FFFFFF" transform="translate(0,0)"/>
<path d="" fill="#FFFFFF" transform="translate(0,0)"/>
<path d="" fill="#FFFFFF" transform="translate(0,0)"/>
<path d="" fill="#FFFFFF" transform="translate(0,0)"/>
<path d="" fill="#FFFFFF" transform="translate(0,0)"/>
<path d="" fill="#FFFFFF" transform="translate(0,0)"/>
<path d="" fill="#FFFFFF" transform="translate(0,0)"/>
<path d="" fill="#FFFFFF" transform="translate(0,0)"/>
<path d="" fill="#FFFFFF" transform="translate(0,0)"/>
<path d="" fill="#FFFFFF" transform="translate(0,0)"/>
<path d="" fill="#FFFFFF" transform="translate(0,0)"/>
<path d="" fill="#FFFFFF" transform="translate(0,0)"/>
<path d="" fill="#FFFFFF" transform="translate(0,0)"/>
<path d="" fill="#FFFFFF" transform="translate(0,0)"/>
<path d="" fill="#FFFFFF" transform="translate(0,0)"/>
<path d="" fill="#FFFFFF" transform="translate(0,0)"/>
<path d="" fill="#FFFFFF" transform="translate(0,0)"/>
</svg>
