<?xml version="1.0" encoding="UTF-8"?>
<svg version="1.1" xmlns="http://www.w3.org/2000/svg" width="688" height="249">
<path d="M0 0 C6.01346209 3.64633387 9.63342724 7.51203753 11.96484375 14.19140625 C14.94971646 26.71061381 14.26869501 39.86433828 14.22558594 52.63623047 C14.21475233 56.47378923 14.22558546 60.31089194 14.23828125 64.1484375 C14.23696164 66.58463645 14.23440338 69.02083512 14.23046875 71.45703125 C14.23451721 72.60584778 14.23856567 73.75466431 14.24273682 74.93829346 C14.23328033 76.52199738 14.23328033 76.52199738 14.22363281 78.13769531 C14.22204163 79.06809631 14.22045044 79.99849731 14.21881104 80.95709229 C13.96484375 83.19140625 13.96484375 83.19140625 11.96484375 85.19140625 C10.08544922 85.41845703 10.08544922 85.41845703 7.83203125 85.38671875 C7.02636719 85.38027344 6.22070312 85.37382812 5.390625 85.3671875 C4.54886719 85.35042969 3.70710938 85.33367187 2.83984375 85.31640625 C1.99035156 85.30738281 1.14085937 85.29835938 0.265625 85.2890625 C-1.83475509 85.26546272 -3.93499069 85.22959108 -6.03515625 85.19140625 C-6.04728653 84.28844063 -6.04728653 84.28844063 -6.05966187 83.36723328 C-6.14626276 77.0557375 -6.24578485 70.74453596 -6.35253906 64.43334961 C-6.39063046 62.08346531 -6.42551651 59.73352663 -6.45703125 57.38354492 C-6.50311546 53.98987499 -6.56103549 50.59657306 -6.62109375 47.203125 C-6.63264496 46.16621017 -6.64419617 45.12929535 -6.65609741 44.06095886 C-6.81057739 36.28469677 -7.06925437 28.12321 -10.59765625 21.06640625 C-14.21048335 18.28730848 -17.53233691 17.82334971 -22.03515625 18.19140625 C-27.34323662 20.39476036 -29.12338409 23.6266084 -31.2734375 28.6796875 C-33.27724001 35.28709782 -33.2202998 42.05704072 -33.31640625 48.90234375 C-33.35416546 50.97135419 -33.39192591 53.0403646 -33.4296875 55.109375 C-33.48353081 58.35528673 -33.53571068 61.6012213 -33.58740234 64.84716797 C-33.63893473 67.99064337 -33.69621183 71.13397639 -33.75390625 74.27734375 C-33.76748169 75.25641693 -33.78105713 76.23549011 -33.79504395 77.24423218 C-33.81176147 78.1425174 -33.828479 79.04080261 -33.84570312 79.96630859 C-33.86449524 81.15708511 -33.86449524 81.15708511 -33.88366699 82.37191772 C-34.03515625 84.19140625 -34.03515625 84.19140625 -35.03515625 85.19140625 C-36.37783038 85.27772499 -37.72489947 85.29847098 -39.0703125 85.2890625 C-39.87919922 85.28583984 -40.68808594 85.28261719 -41.52148438 85.27929688 C-42.37162109 85.27091797 -43.22175781 85.26253906 -44.09765625 85.25390625 C-44.95166016 85.24939453 -45.80566406 85.24488281 -46.68554688 85.24023438 C-48.80211288 85.22840998 -50.9186431 85.21047394 -53.03515625 85.19140625 C-53.19084988 76.93161723 -53.33897473 68.67173815 -53.47811985 60.41165543 C-53.542993 56.57384187 -53.61022162 52.73610335 -53.68334961 48.8984375 C-53.99841036 32.27804943 -54.14907492 15.79292006 -53.03515625 -0.80859375 C-46.76515625 -0.80859375 -40.49515625 -0.80859375 -34.03515625 -0.80859375 C-33.70515625 1.50140625 -33.37515625 3.81140625 -33.03515625 6.19140625 C-32.61105469 5.79308594 -32.18695313 5.39476563 -31.75 4.984375 C-22.49820437 -3.3727415 -11.4321163 -5.93312365 0 0 Z " fill="#1B1B19" transform="translate(301.03515625,60.80859375)"/>
<path d="M0 0 C16.5 0 33 0 50 0 C50 7.26 50 14.52 50 22 C39.77 22 29.54 22 19 22 C19 28.6 19 35.2 19 42 C29.23 42 39.46 42 50 42 C50 49.26 50 56.52 50 64 C39.77 64 29.54 64 19 64 C19 81.16 19 98.32 19 116 C12.73 116 6.46 116 0 116 C0 77.72 0 39.44 0 0 Z " fill="#1A1A19" transform="translate(150,30)"/>
<path d="M0 0 C4.59160411 2.93523686 8.47832082 6.65485922 12.328125 10.48828125 C12.658125 6.85828125 12.988125 3.22828125 13.328125 -0.51171875 C16.958125 -0.51171875 20.588125 -0.51171875 24.328125 -0.51171875 C24.328125 27.53828125 24.328125 55.58828125 24.328125 84.48828125 C20.89880429 86.20294161 17.11096435 85.54232181 13.328125 85.48828125 C12.998125 81.52828125 12.668125 77.56828125 12.328125 73.48828125 C11.85375 74.18953125 11.379375 74.89078125 10.890625 75.61328125 C4.48698802 82.79784957 -3.18042386 86.25130015 -12.671875 87.48828125 C-23.11972933 87.80250243 -31.60319041 84.77381206 -39.7578125 78.30859375 C-50.13885544 68.43601006 -53.98485968 55.45759271 -54.671875 41.48828125 C-53.94067963 27.83930097 -48.95384747 15.03612843 -38.796875 5.67578125 C-28.14668578 -3.13464399 -12.8041177 -5.98832035 0 0 Z M-34.00390625 16.39453125 C-41.03093563 25.21534564 -44.05978991 34.71267332 -43.484375 45.86328125 C-42.24747488 56.66752928 -37.76005977 64.22352416 -29.671875 71.48828125 C-23.71855551 75.45367331 -17.76931373 77.06065534 -10.671875 76.48828125 C-2.00528318 74.23554132 5.04415829 69.52003931 9.96484375 61.98046875 C15.16352388 51.76185968 15.47709949 40.40700801 12.328125 29.48828125 C9.58964215 21.84791411 4.47348066 14.8505709 -2.796875 11.05078125 C-13.61877853 6.33567165 -25.28629767 8.27742302 -34.00390625 16.39453125 Z " fill="#1B1B19" transform="translate(501.671875,60.51171875)"/>
<path d="M0 0 C10.09003684 5.91040479 17.1254864 15.24171636 20.75 26.28515625 C22.2242424 32.08998571 22 36.78761352 22 43 C0.22 43 -21.56 43 -44 43 C-39.9347055 61.13645599 -39.9347055 61.13645599 -27.484375 72.90234375 C-20.52037737 75.97920434 -13.42140565 75.57362499 -6.34765625 73.0625 C1.86955857 69.34356085 5.88697277 63.88330219 10 56 C13.81583379 56.65179251 16.02881405 57.46898975 19 60 C18.07083285 68.09198731 13.4914109 74.32674615 7.1875 79.375 C-2.5422009 85.96729255 -13.07922447 88.06111823 -24.6875 86.375 C-33.2686959 84.51059629 -40.73028199 80.08686216 -46 73 C-54.17311937 58.86766121 -57.25310866 45.37929587 -54.3125 29.22265625 C-51.19193833 18.28768807 -45.5126838 7.40912083 -35.4375 1.49609375 C-24.43650365 -4.11633317 -11.49080486 -5.39904838 0 0 Z M-37.52734375 18.73828125 C-40.20252852 22.84685414 -43 27.99354282 -43 33 C-25.51 33 -8.02 33 10 33 C7.67384159 22.53228716 4.7055127 17.25497855 -4 11.1875 C-16.04175297 4.03770917 -29.15649687 8.34893229 -37.52734375 18.73828125 Z " fill="#1B1B19" transform="translate(412,61)"/>
<path d="M0 0 C0.05399736 1.45792884 0.09279177 2.91642712 0.125 4.375 C0.14820313 5.18710937 0.17140625 5.99921875 0.1953125 6.8359375 C0 9 0 9 -2 11 C-2.86625 10.649375 -3.7325 10.29875 -4.625 9.9375 C-8.26659988 8.92594448 -10.3750984 9.07269959 -14 10 C-15.58403524 11.58403524 -15.21974935 13.2771638 -15.31640625 15.47265625 C-15.37924805 16.82133789 -15.37924805 16.82133789 -15.44335938 18.19726562 C-15.48267578 19.14279297 -15.52199219 20.08832031 -15.5625 21.0625 C-15.62727539 22.4865918 -15.62727539 22.4865918 -15.69335938 23.93945312 C-15.79979132 26.29278176 -15.90043154 28.64637099 -16 31 C-11.05 31.33 -6.1 31.66 -1 32 C-0.90234375 38.93359375 -0.90234375 38.93359375 -1 41 C-2.94090826 42.94090826 -6.47293902 42.39919435 -9.0625 42.5625 C-10.35285156 42.64628906 -11.64320313 42.73007813 -12.97265625 42.81640625 C-13.97167969 42.87699219 -14.97070312 42.93757813 -16 43 C-15.98667633 43.91295837 -15.97335266 44.82591675 -15.95962524 45.76654053 C-15.83886416 54.41577562 -15.74778114 63.06472321 -15.68912697 71.71461105 C-15.65795697 76.16053294 -15.61575112 80.60575201 -15.54736328 85.05126953 C-15.48165264 89.35018969 -15.44618649 93.64843854 -15.43073654 97.94782257 C-15.41974196 99.57917077 -15.39827415 101.2104867 -15.36561966 102.8415451 C-15.09038449 117.17333919 -18.92385538 126.74612282 -27.8125 138.125 C-28.33094482 138.80240234 -28.84938965 139.47980469 -29.38354492 140.17773438 C-33.04748345 144.91326065 -36.89529822 149.44091145 -40.9765625 153.82421875 C-42.94344158 155.93918332 -44.81756735 158.11185874 -46.6875 160.3125 C-54.69081919 169.44330758 -54.69081919 169.44330758 -61 170 C-61 166 -61 166 -59.39868164 164.00805664 C-58.65996826 163.31574951 -57.92125488 162.62344238 -57.16015625 161.91015625 C-56.34812744 161.13212646 -55.53609863 160.35409668 -54.69946289 159.55249023 C-53.82926514 158.73079346 -52.95906738 157.90909668 -52.0625 157.0625 C-44.73884336 149.94045534 -37.86360269 143.0644974 -33 134 C-32.66381149 133.39596848 -32.32762299 132.79193695 -31.98124695 132.16960144 C-27.81871173 123.50027211 -28.39505433 114.48292703 -28.390625 105.0859375 C-28.37562356 103.26175482 -28.35889233 101.43758563 -28.34051514 99.61343384 C-28.29704968 94.84270562 -28.27688894 90.07216057 -28.26177979 85.30126953 C-28.24213327 80.42078921 -28.20017199 75.54050454 -28.16015625 70.66015625 C-28.08507982 61.10683149 -28.03465212 51.553551 -28 42 C-30.97 42 -33.94 42 -37 42 C-37 38.7 -37 35.4 -37 32 C-34.03 32 -31.06 32 -28 32 C-28.02320313 30.80503906 -28.04640625 29.61007813 -28.0703125 28.37890625 C-28.35867814 7.7466698 -28.35867814 7.7466698 -23.6875 1.5625 C-16.6735366 -5.12523254 -8.14840888 -4.16088964 0 0 Z " fill="#191918" transform="translate(578,28)"/>
<path d="M0 0 C6.6 0 13.2 0 20 0 C20.02255049 11.06535221 20.04091478 22.13068928 20.05181217 33.19605923 C20.05704113 38.33359566 20.06413901 43.47111563 20.07543945 48.60864258 C20.08626787 53.5623141 20.09227674 58.51596974 20.09487724 63.46965218 C20.09673157 65.36397616 20.10035234 67.25829924 20.10573006 69.1526165 C20.11293989 71.79634386 20.11399097 74.44000471 20.11352539 77.08374023 C20.11712067 77.87495773 20.12071594 78.66617523 20.12442017 79.48136902 C20.11405216 84.88594784 20.11405216 84.88594784 19 86 C12.73 86 6.46 86 0 86 C0 57.62 0 29.24 0 0 Z " fill="#1B1B19" transform="translate(212,60)"/>
<path d="M0 0 C3.3 0 6.6 0 10 0 C11.60871498 1.60871498 11.12600829 3.32900899 11.12698364 5.55529785 C11.12980347 6.53968338 11.13262329 7.52406891 11.13552856 8.5382843 C11.13350433 9.62715439 11.1314801 10.71602448 11.12939453 11.83789062 C11.13114685 12.97759811 11.13289917 14.1173056 11.13470459 15.29154968 C11.13912586 19.07979836 11.13618414 22.8680008 11.1328125 26.65625 C11.13348546 29.27559417 11.13445542 31.89493827 11.13571167 34.51428223 C11.1375332 40.01229356 11.13512749 45.51029148 11.13037109 51.00830078 C11.1249285 57.37316987 11.12669117 63.73800692 11.1321975 70.10287523 C11.13727429 76.21484332 11.1367471 82.32679716 11.13381577 88.43876648 C11.13314622 91.04481511 11.13397587 93.65086455 11.13629532 96.25691223 C11.13882022 99.89200033 11.13498353 103.52702596 11.12939453 107.16210938 C11.13141876 108.25097946 11.13344299 109.33984955 11.13552856 110.4617157 C11.13270874 111.44610123 11.12988892 112.43048676 11.12698364 113.44470215 C11.12660662 114.30527977 11.12622959 115.16585739 11.12584114 116.05251312 C11 118 11 118 10 119 C6.7 119 3.4 119 0 119 C0 79.73 0 40.46 0 0 Z " fill="#1D1D1B" transform="translate(331,27)"/>
<path d="M0 0 C10.09003684 5.91040479 17.1254864 15.24171636 20.75 26.28515625 C22.2242424 32.08998571 22 36.78761352 22 43 C0.22 43 -21.56 43 -44 43 C-39.93582892 61.13775423 -39.93582892 61.13775423 -27.48046875 72.90234375 C-19.15619484 76.58599882 -11.30419487 74.84302223 -3 72 C-3 72.66 -3 73.32 -3 74 C-10.06861027 78.06069101 -17.59744868 78.15949002 -25.51171875 76.4609375 C-33.1055874 73.82839637 -37.83083597 68.63221482 -42 62 C-43.24330938 59.35016688 -44.11125297 56.80656957 -45 54 C-45.28423828 53.14148438 -45.28423828 53.14148438 -45.57421875 52.265625 C-46.20677476 48.89973066 -46 45.42481705 -46 42 C-24.22 42 -2.44 42 20 42 C19.01 35.73 18.02 29.46 17 23 C15.68 22.34 14.36 21.68 13 21 C12.67 21.66 12.34 22.32 12 23 C11.34 23 10.68 23 10 23 C10.66471086 27.18699684 10.66471086 27.18699684 11.625 31.3125 C11.74875 31.869375 11.8725 32.42625 12 33 C11 34 11 34 9.01951599 34.12025452 C8.15125687 34.11803391 7.28299774 34.11581329 6.38842773 34.11352539 C5.40748642 34.11344986 4.4265451 34.11337433 3.4158783 34.11329651 C2.3492244 34.10813522 1.2825705 34.10297394 0.18359375 34.09765625 C-1.44569313 34.09553383 -1.44569313 34.09553383 -3.1078949 34.09336853 C-6.59279075 34.08775048 -10.07762342 34.07519492 -13.5625 34.0625 C-15.91861887 34.05748733 -18.27473874 34.05292402 -20.63085938 34.04882812 C-26.42059464 34.03777519 -32.21029281 34.02101951 -38 34 C-38 33.67 -38 33.34 -38 33 C-22.16 33 -6.32 33 10 33 C5.90642659 22.76606647 3.26985902 16.63187661 -6 11 C-12.09935355 8.56025858 -18.30268564 7.74894499 -24.5859375 9.875 C-30.53155712 12.58891646 -34.11182864 15.78166475 -38 21 C-38.66 20.34 -39.32 19.68 -40 19 C-39.34 18.34 -38.68 17.68 -38 17 C-38 16.01 -38 15.02 -38 14 C-40.85778033 13.31506627 -40.85778033 13.31506627 -44 13 C-44.99 13.66 -45.98 14.32 -47 15 C-45.31480577 8.8209545 -40.80227625 4.65589051 -35.421875 1.4765625 C-24.40405643 -4.09677847 -11.49682655 -5.40187773 0 0 Z " fill="#161615" transform="translate(412,61)"/>
<path d="M0 0 C3.63 0 7.26 0 11 0 C11 28.05 11 56.1 11 85 C7.57067929 86.71466036 3.78283935 86.05404056 0 86 C-0.33 82.04 -0.66 78.08 -1 74 C-1.474375 74.70125 -1.94875 75.4025 -2.4375 76.125 C-8.84113698 83.30956832 -16.50854886 86.7630189 -26 88 C-36.44785433 88.31422118 -44.93131541 85.28553081 -53.0859375 78.8203125 C-63.46698044 68.94772881 -67.31298468 55.96931146 -68 42 C-67.55776642 33.74497315 -66.10245778 23.10245778 -60 17 C-60.60729797 20.88670698 -61.81861574 24.31016704 -63.28125 27.9375 C-67.06294834 38.78933003 -65.29672866 51.2551066 -62 62 C-60.43511349 64.88421902 -58.67091715 67.47952073 -56.8125 70.1875 C-55 73 -55 73 -55 75 C-54.34 75 -53.68 75 -53 75 C-52.67 75.66 -52.34 76.32 -52 77 C-51.34 77 -50.68 77 -50 77 C-48.69485264 74.78223378 -48.69485264 74.78223378 -48 72 C-49.31865712 69.35774595 -49.31865712 69.35774595 -51 67 C-51 66.01 -51 65.02 -51 64 C-51.66 64 -52.32 64 -53 64 C-57.15375336 56.56774845 -58.4936329 50.2962827 -58.5 41.875 C-58.50580078 41.03348389 -58.51160156 40.19196777 -58.51757812 39.32495117 C-58.46875 36.9296875 -58.46875 36.9296875 -58 33 C-57.01 32.34 -56.02 31.68 -55 31 C-55.08378906 31.59425781 -55.16757812 32.18851563 -55.25390625 32.80078125 C-56.64798004 44.14748311 -56.03351747 54.90173589 -49.23828125 64.484375 C-44.13134973 70.62473275 -38.82619739 74.31627626 -31 76 C-24.82841169 76.49372707 -19.77148676 74.9509251 -14 73 C-14.66 74.65 -15.32 76.3 -16 78 C-15.01 78 -14.02 78 -13 78 C-13 78.66 -13 79.32 -13 80 C-7.70841026 78.59928507 -5.22521956 75.14512755 -2 71 C-0.515 71.495 -0.515 71.495 1 72 C1.16873478 73.43725871 1.33490737 74.87481838 1.5 76.3125 C1.5928125 77.11300781 1.685625 77.91351563 1.78125 78.73828125 C2 81 2 81 2 84 C4.31 84 6.62 84 9 84 C9 56.61 9 29.22 9 1 C6.69 1.33 4.38 1.66 2 2 C2.05220703 3.26457031 2.05220703 3.26457031 2.10546875 4.5546875 C2.13253906 5.65039062 2.15960937 6.74609375 2.1875 7.875 C2.23970703 9.51082031 2.23970703 9.51082031 2.29296875 11.1796875 C2.19628906 12.11039063 2.09960938 13.04109375 2 14 C1.01 14.66 0.02 15.32 -1 16 C-5.00390625 11.60546875 -5.00390625 11.60546875 -6 10 C-5.67 9.01 -5.34 8.02 -5 7 C-3.68 8.32 -2.36 9.64 -1 11 C-0.67 7.37 -0.34 3.74 0 0 Z " fill="#1C1C1A" transform="translate(515,60)"/>
<path d="M0 0 C4.21172001 0.72895154 5.40250546 2.32923945 7.92578125 5.640625 C11.18277107 10.36758368 12.97521018 14.27801215 12.80859375 20.05078125 C11.51243605 25.87895888 7.08956943 32.95373465 2.25 36.5625 C-0.20703125 37.04296875 -0.20703125 37.04296875 -2.75 36.5625 C-4.69921875 34.55078125 -4.69921875 34.55078125 -6.4375 31.875 C-7.30955078 30.56982422 -7.30955078 30.56982422 -8.19921875 29.23828125 C-11.54719155 23.46155237 -13.07777012 18.21118594 -11.75 11.5625 C-9.13143294 7.05008679 -5.29673747 1.08342357 0 0 Z M0.25 5.5625 C0.22272655 8.22923742 0.20303052 10.89568869 0.1875 13.5625 C0.17912109 14.30628906 0.17074219 15.05007812 0.16210938 15.81640625 C0.14033728 20.82398844 0.53458451 25.60529032 1.25 30.5625 C1.58 30.5625 1.91 30.5625 2.25 30.5625 C3.19282543 21.83499433 3.36222766 14.11614922 1.25 5.5625 C0.92 5.5625 0.59 5.5625 0.25 5.5625 Z " fill="#171715" transform="translate(221.75,21.4375)"/>
<path d="M0 0 C3.3 0 6.6 0 10 0 C11.60871498 1.60871498 11.12600829 3.32900899 11.12698364 5.55529785 C11.12980347 6.53968338 11.13262329 7.52406891 11.13552856 8.5382843 C11.13350433 9.62715439 11.1314801 10.71602448 11.12939453 11.83789062 C11.13114685 12.97759811 11.13289917 14.1173056 11.13470459 15.29154968 C11.13912586 19.07979836 11.13618414 22.8680008 11.1328125 26.65625 C11.13348546 29.27559417 11.13445542 31.89493827 11.13571167 34.51428223 C11.1375332 40.01229356 11.13512749 45.51029148 11.13037109 51.00830078 C11.1249285 57.37316987 11.12669117 63.73800692 11.1321975 70.10287523 C11.13727429 76.21484332 11.1367471 82.32679716 11.13381577 88.43876648 C11.13314622 91.04481511 11.13397587 93.65086455 11.13629532 96.25691223 C11.13882022 99.89200033 11.13498353 103.52702596 11.12939453 107.16210938 C11.13141876 108.25097946 11.13344299 109.33984955 11.13552856 110.4617157 C11.13270874 111.44610123 11.12988892 112.43048676 11.12698364 113.44470215 C11.12660662 114.30527977 11.12622959 115.16585739 11.12584114 116.05251312 C11 118 11 118 10 119 C8.31391034 119.07205511 6.62499341 119.08386068 4.9375 119.0625 C3.55884766 119.04896484 3.55884766 119.04896484 2.15234375 119.03515625 C1.44207031 119.02355469 0.73179687 119.01195312 0 119 C0.33 118.01 0.66 117.02 1 116 C3.64 116.33 6.28 116.66 9 117 C9 79.05 9 41.1 9 2 C6.36 2 3.72 2 1 2 C1 39.29 1 76.58 1 115 C0.67 115 0.34 115 0 115 C0 77.05 0 39.1 0 0 Z " fill="#090908" transform="translate(331,27)"/>
<path d="M0 0 C3.63 0 7.26 0 11 0 C11 28.05 11 56.1 11 85 C7.57067929 86.71466036 3.78283935 86.05404056 0 86 C-0.33 82.04 -0.66 78.08 -1 74 C-1.474375 74.70125 -1.94875 75.4025 -2.4375 76.125 C-8.82731692 83.29406289 -16.51655426 86.79687629 -26 88 C-36.3902439 88.07317073 -36.3902439 88.07317073 -41 85 C-39.76765625 85.05800781 -38.5353125 85.11601562 -37.265625 85.17578125 C-26.3411695 85.53720344 -16.66012529 85.48342471 -7.7890625 78.1796875 C-6.08593965 76.51827378 -4.53043219 74.81910653 -3 73 C-2.34 72.34 -1.68 71.68 -1 71 C-0.01 71.495 -0.01 71.495 1 72 C1.4140625 73.9609375 1.4140625 73.9609375 1.625 76.375 C1.69976563 77.16648437 1.77453125 77.95796875 1.8515625 78.7734375 C1.96749782 80.51246725 2 82.25711002 2 84 C4.31 84 6.62 84 9 84 C9 56.61 9 29.22 9 1 C6.69 1.33 4.38 1.66 2 2 C2.05220703 3.26457031 2.05220703 3.26457031 2.10546875 4.5546875 C2.13253906 5.65039062 2.15960937 6.74609375 2.1875 7.875 C2.23970703 9.51082031 2.23970703 9.51082031 2.29296875 11.1796875 C2.19628906 12.11039063 2.09960938 13.04109375 2 14 C1.01 14.66 0.02 15.32 -1 16 C-5.00390625 11.60546875 -5.00390625 11.60546875 -6 10 C-5.67 9.01 -5.34 8.02 -5 7 C-3.68 8.32 -2.36 9.64 -1 11 C-0.67 7.37 -0.34 3.74 0 0 Z " fill="#060605" transform="translate(515,60)"/>
<path d="M0 0 C0.8971875 0.309375 0.8971875 0.309375 1.8125 0.625 C1.8125 1.615 1.8125 2.605 1.8125 3.625 C1.1525 3.625 0.4925 3.625 -0.1875 3.625 C-0.1875 2.965 -0.1875 2.305 -0.1875 1.625 C-1.1775 1.625 -2.1675 1.625 -3.1875 1.625 C-2.8575 2.285 -2.5275 2.945 -2.1875 3.625 C-2.140607 5.20763877 -2.15003515 6.79210998 -2.1875 8.375 C-2.24923576 14.20131194 -1.86412665 19.94777601 -1.40625 25.75390625 C-1.28277287 27.37454352 -1.1875 28.99966565 -1.1875 30.625 C-0.8575 31.615 -0.5275 32.605 -0.1875 33.625 C-2.8125 33.75 -2.8125 33.75 -6.1875 32.625 C-10.41128774 27.18748015 -13.31231755 21.62469408 -13.4375 14.6875 C-13.46328125 13.83285156 -13.4890625 12.97820313 -13.515625 12.09765625 C-13.11890413 9.10808115 -12.30165353 7.75397236 -10.1875 5.625 C-9.1975 5.625 -8.2075 5.625 -7.1875 5.625 C-6.919375 5.00625 -6.65125 4.3875 -6.375 3.75 C-4.77615771 0.8889138 -3.38774371 -0.58075607 0 0 Z " fill="#1A1A18" transform="translate(223.1875,23.375)"/>
<path d="M0 0 C9.04169551 4.14575558 13.34977296 12.09018065 17 21 C19.17647509 27.45652898 19 33.02475507 19 40 C-2.78 40 -24.56 40 -47 40 C-42.93582892 58.13775423 -42.93582892 58.13775423 -30.48046875 69.90234375 C-22.15619484 73.58599882 -14.30419487 71.84302223 -6 69 C-6 69.66 -6 70.32 -6 71 C-13.06861027 75.06069101 -20.59744868 75.15949002 -28.51171875 73.4609375 C-36.1055874 70.82839637 -40.83083597 65.63221482 -45 59 C-46.24330938 56.35016688 -47.11125297 53.80656957 -48 51 C-48.28423828 50.14148438 -48.28423828 50.14148438 -48.57421875 49.265625 C-49.20677476 45.89973066 -49 42.42481705 -49 39 C-27.22 39 -5.44 39 17 39 C14.22966003 17.94436085 14.22966003 17.94436085 1.5390625 3.33984375 C1.03117187 2.89769531 0.52328125 2.45554687 0 2 C0 1.34 0 0.68 0 0 Z " fill="#0A0A09" transform="translate(415,64)"/>
<path d="M0 0 C1.02245821 3.31868591 1.04443871 6.18283589 0.87890625 9.640625 C0.83056641 10.71054687 0.78222656 11.78046875 0.73242188 12.8828125 C0.67634766 13.99398437 0.62027344 15.10515625 0.5625 16.25 C0.51029297 17.37664063 0.45808594 18.50328125 0.40429688 19.6640625 C0.27477014 22.44299972 0.13980947 25.22156424 0 28 C-3.09773244 28.84062397 -5.78332751 29.08935201 -9 29 C-9 30.98 -9 32.96 -9 35 C-7.700625 34.979375 -6.40125 34.95875 -5.0625 34.9375 C-3.70834367 34.91600546 -2.35243917 34.92851801 -1 35 C0.70644012 36.70644012 0.13205264 38.85781482 0.14663696 41.13467407 C0.14618378 41.86971161 0.14573059 42.60474915 0.14526367 43.36206055 C0.15030159 44.51825142 0.15030159 44.51825142 0.15544128 45.69779968 C0.16498426 48.26078886 0.16689644 50.82371288 0.16796875 53.38671875 C0.17118035 55.1645358 0.17454435 56.94235258 0.17805481 58.72016907 C0.18405538 62.45529797 0.18589389 66.19040372 0.18530273 69.92553711 C0.18520136 74.70605617 0.19882334 79.48642587 0.21607494 84.2669096 C0.22721175 87.9429848 0.22922138 91.61902418 0.22869301 95.29511452 C0.22987175 97.05691859 0.23428761 98.81872362 0.24202538 100.58051109 C0.25185378 103.05076795 0.24893542 105.52070446 0.24291992 107.9909668 C0.24853943 108.71588318 0.25415894 109.44079956 0.25994873 110.18768311 C0.23335912 114.49791377 -0.42052881 117.99135247 -2 122 C-3.22803007 118.3159098 -3.08733412 114.96307965 -3.02172852 111.13208008 C-3.01212097 110.33184921 -3.00251343 109.53161835 -2.99261475 108.70713806 C-2.9596246 106.06117963 -2.9192923 103.41538629 -2.87890625 100.76953125 C-2.85460515 98.93536461 -2.83076158 97.10119186 -2.80735779 95.26701355 C-2.74451587 90.43857866 -2.67544947 85.61025198 -2.60510254 80.78192139 C-2.53442011 75.85531544 -2.46960259 70.92863276 -2.40429688 66.00195312 C-2.27528313 56.33455108 -2.13969592 46.66725317 -2 37 C-4.97 37 -7.94 37 -11 37 C-11 33.7 -11 30.4 -11 27 C-8.03 27 -5.06 27 -2 27 C-2.02320313 25.80503906 -2.04640625 24.61007813 -2.0703125 23.37890625 C-2.2810946 7.69869427 -2.2810946 7.69869427 0 0 Z " fill="#0A0A08" transform="translate(552,33)"/>
<path d="M0 0 C2.85799048 1.75058908 4.85319941 3.65118304 6.99609375 6.22265625 C3.99609375 6.22265625 3.99609375 6.22265625 1.99609375 5.22265625 C1.99609375 4.56265625 1.99609375 3.90265625 1.99609375 3.22265625 C-8.54838272 -0.9170271 -19.14023789 -2.33235956 -29.81640625 2.09765625 C-33.13008411 3.54632093 -33.90834577 4.07931553 -36.00390625 7.22265625 C-35.01390625 6.89265625 -34.02390625 6.56265625 -33.00390625 6.22265625 C-32.34390625 7.54265625 -31.68390625 8.86265625 -31.00390625 10.22265625 C-30.38902344 10.00609375 -29.77414062 9.78953125 -29.140625 9.56640625 C-28.33238281 9.28796875 -27.52414062 9.00953125 -26.69140625 8.72265625 C-25.89089844 8.44421875 -25.09039062 8.16578125 -24.265625 7.87890625 C-22.00390625 7.22265625 -22.00390625 7.22265625 -19.00390625 7.22265625 C-19.00390625 7.88265625 -19.00390625 8.54265625 -19.00390625 9.22265625 C-19.65617187 9.45339844 -20.3084375 9.68414062 -20.98046875 9.921875 C-31.9649811 14.02081545 -35.8766258 18.84082244 -41.00390625 29.22265625 C-41.66390625 28.89265625 -42.32390625 28.56265625 -43.00390625 28.22265625 C-42.65328125 27.27390625 -42.30265625 26.32515625 -41.94140625 25.34765625 C-40.65363848 22.35205453 -40.65363848 22.35205453 -42.00390625 20.22265625 C-41.34390625 20.22265625 -40.68390625 20.22265625 -40.00390625 20.22265625 C-38.78029945 18.14812065 -38.78029945 18.14812065 -39.00390625 15.22265625 C-39.90109375 15.47015625 -39.90109375 15.47015625 -40.81640625 15.72265625 C-43.00390625 16.22265625 -43.00390625 16.22265625 -46.00390625 16.22265625 C-46.00390625 11.66665674 -43.35007392 9.70218748 -40.36328125 6.4453125 C-36.94404919 3.22421475 -33.27133921 1.13035967 -29.00390625 -0.77734375 C-28.24851562 -1.14214844 -27.493125 -1.50695313 -26.71484375 -1.8828125 C-18.44244783 -4.61246476 -7.80311662 -3.67128084 0 0 Z " fill="#151514" transform="translate(502.00390625,60.77734375)"/>
<path d="M0 0 C3.94390105 3.0475599 4.63848159 7.43406809 5.29829407 12.1171875 C6.0345629 19.06475086 6.1611833 25.95481351 6.16796875 32.9375 C6.17129715 34.13938965 6.17462555 35.3412793 6.17805481 36.57958984 C6.18308851 39.10074483 6.18546424 41.6219064 6.18530273 44.14306641 C6.18750915 48.01605909 6.20575638 51.8887756 6.22460938 55.76171875 C6.22753998 58.21614486 6.229527 60.67057232 6.23046875 63.125 C6.23765427 64.28636475 6.24483978 65.44772949 6.25224304 66.64428711 C6.24916641 67.71300049 6.24608978 68.78171387 6.24291992 69.8828125 C6.24434494 70.82527832 6.24576996 71.76774414 6.24723816 72.73876953 C6 75 6 75 4 77 C-1.94 77 -7.88 77 -14 77 C-14 62.48 -14 47.96 -14 33 C-13.67 33 -13.34 33 -13 33 C-13 46.86 -13 60.72 -13 75 C-7.39 75 -1.78 75 4 75 C4.04984306 67.70834319 4.08592753 60.41678797 4.10986328 53.125 C4.11985332 50.6500475 4.13344995 48.1751066 4.15087891 45.70019531 C5.13266168 22.73008437 5.13266168 22.73008437 -1 1 C-0.67 0.67 -0.34 0.34 0 0 Z " fill="#0F0F0E" transform="translate(309,69)"/>
<path d="M0 0 C0 7.36424167 -10.32061799 15.54646772 -15.25 20.9375 C-15.74467773 21.48067871 -16.23935547 22.02385742 -16.74902344 22.58349609 C-24.82243053 31.29399206 -24.82243053 31.29399206 -31 32 C-31 28 -31 28 -29.35107422 25.92871094 C-28.5932666 25.20458008 -27.83545898 24.48044922 -27.0546875 23.734375 C-25.80945313 22.52201172 -25.80945313 22.52201172 -24.5390625 21.28515625 C-23.65992188 20.44855469 -22.78078125 19.61195313 -21.875 18.75 C-16.04022447 13.15248191 -10.58575969 7.68495672 -6 1 C-5.34 1.33 -4.68 1.66 -4 2 C-4.66 3.32 -5.32 4.64 -6 6 C-5.38125 5.195625 -4.7625 4.39125 -4.125 3.5625 C-2 1 -2 1 0 0 Z " fill="#0C0C0C" transform="translate(548,166)"/>
<path d="M0 0 C1 2 1 2 0.5 5.4375 C-0.85796395 15.45022088 0.87219514 25.17897142 6.76171875 33.484375 C11.86865027 39.62473275 17.17380261 43.31627626 25 45 C31.17158831 45.49372707 36.22851324 43.9509251 42 42 C39.53966127 45.6905081 38.21909671 45.92256958 34 47 C24.58956035 48.00409158 18.20732974 46.95721085 10.73828125 41.28125 C6.71893483 37.97037476 6.71893483 37.97037476 5 36 C5 35.01 5 34.02 5 33 C4.34 33 3.68 33 3 33 C-1.16749098 25.54316792 -2.47581538 19.32114564 -2.4375 10.875 C-2.43492187 10.03348389 -2.43234375 9.19196777 -2.4296875 8.32495117 C-2.28185934 2.28185934 -2.28185934 2.28185934 0 0 Z " fill="#060605" transform="translate(459,91)"/>
<path d="M0 0 C3.81583379 0.65179251 6.02881405 1.46898975 9 4 C8.07083285 12.09198731 3.4914109 18.32674615 -2.8125 23.375 C-13.26968675 30.46019563 -24.66563658 32.13479367 -37 30 C-36.67 29.34 -36.34 28.68 -36 28 C-34.90042969 28.04640625 -33.80085938 28.0928125 -32.66796875 28.140625 C-21.59820942 28.47052264 -12.4198138 27.99226139 -3.5625 20.5625 C0.24022361 16.92308354 4.20833695 13.04923222 6 8 C5.70194993 5.80252869 5.70194993 5.80252869 5 4 C3.68 3.67 2.36 3.34 1 3 C0.54109375 3.68707031 0.0821875 4.37414062 -0.390625 5.08203125 C-1.00421875 5.98308594 -1.6178125 6.88414063 -2.25 7.8125 C-2.85328125 8.70582031 -3.4565625 9.59914063 -4.078125 10.51953125 C-5.91610671 12.89172309 -7.39674588 14.51614515 -10 16 C-10.99 15.67 -11.98 15.34 -13 15 C-11.96875 14.38125 -10.9375 13.7625 -9.875 13.125 C-5.09423148 9.7658042 -2.68959202 5.07377248 0 0 Z " fill="#060605" transform="translate(422,117)"/>
<path d="M0 0 C0.05399736 1.45792884 0.09279177 2.91642712 0.125 4.375 C0.14820313 5.18710937 0.17140625 5.99921875 0.1953125 6.8359375 C0 9 0 9 -2 11 C-2.86625 10.649375 -3.7325 10.29875 -4.625 9.9375 C-8.26659988 8.92594448 -10.3750984 9.07269959 -14 10 C-15.58403524 11.58403524 -15.21974935 13.2771638 -15.31640625 15.47265625 C-15.35830078 16.37177734 -15.40019531 17.27089844 -15.44335938 18.19726562 C-15.50233398 19.61555664 -15.50233398 19.61555664 -15.5625 21.0625 C-15.60568359 22.01189453 -15.64886719 22.96128906 -15.69335938 23.93945312 C-15.79979276 26.29281353 -15.90181008 28.64628354 -16 31 C-16.66 30.67 -17.32 30.34 -18 30 C-18.11644156 26.91698584 -18.18732432 23.83453877 -18.25 20.75 C-18.30027344 19.44095703 -18.30027344 19.44095703 -18.3515625 18.10546875 C-18.44996634 11.660017 -18.44996634 11.660017 -16.234375 8.41015625 C-13.85350964 6.90754717 -12.77308299 6.53043085 -10 6.6875 C-9.3090625 6.72230469 -8.618125 6.75710937 -7.90625 6.79296875 C-5.86612578 7.01453962 -3.94965164 7.35011612 -2 8 C-2 5.69 -2 3.38 -2 1 C-4.1304373 -0.25155765 -4.1304373 -0.25155765 -7.375 0 C-11 0 -11 0 -13.0625 -0.6875 C-16.22450178 -1.19750029 -18.28802526 0.47451421 -21 2 C-22.33333333 2.66666667 -23.66666667 3.33333333 -25 4 C-18.54666228 -5.08247531 -9.28119356 -4.73933288 0 0 Z " fill="#060606" transform="translate(578,28)"/>
<path d="M0 0 C0.99 0 1.98 0 3 0 C5.84722083 6.39690558 6.38462317 11.54509028 6.1875 18.5 C6.17396484 19.4178125 6.16042969 20.335625 6.14648438 21.28125 C6.11148684 23.52109215 6.05769376 25.76062752 6 28 C7.65 25.69 9.3 23.38 11 21 C11 24.58365796 10.22556909 25.36645071 8.0625 28.125 C7.51722656 28.82882813 6.97195312 29.53265625 6.41015625 30.2578125 C5 32 5 32 4 33 C2.33382885 33.04063832 0.66611905 33.042721 -1 33 C-1.33 32.34 -1.66 31.68 -2 31 C-0.35 31.33 1.3 31.66 3 32 C2.2265625 31.13375 2.2265625 31.13375 1.4375 30.25 C0.963125 29.5075 0.48875 28.765 0 28 C0.32513047 26.66464272 0.66000425 25.33165002 1 24 C0.91423069 22.16287668 0.76155106 20.32832085 0.5625 18.5 C-0.03157209 12.31555724 -0.09906549 6.20810387 0 0 Z M2 2 C1.97272655 4.66673742 1.95303052 7.33318869 1.9375 10 C1.92912109 10.74378906 1.92074219 11.48757812 1.91210938 12.25390625 C1.89033728 17.26148844 2.28458451 22.04279032 3 27 C3.33 27 3.66 27 4 27 C4.94282543 18.27249433 5.11222766 10.55364922 3 2 C2.67 2 2.34 2 2 2 Z " fill="#0C0C0A" transform="translate(220,25)"/>
<path d="M0 0 C1.21970604 3.65911811 0.63942883 4.43881321 -0.875 7.875 C-6.05998553 19.73157531 -4.73307416 32.83294348 -1 45 C0.56488651 47.88421902 2.32908285 50.47952073 4.1875 53.1875 C6 56 6 56 6 58 C6.66 58 7.32 58 8 58 C9.625 60.5 9.625 60.5 11 63 C4.09420813 60.12258672 -0.19540713 52.53358195 -3.2265625 45.953125 C-8.30206128 33.13620889 -7.97569621 19.07347872 -2.9375 6.3125 C-2.01023937 4.1745519 -1.04199521 2.08399043 0 0 Z " fill="#090908" transform="translate(454,77)"/>
<path d="M0 0 C2.85799048 1.75058908 4.85319941 3.65118304 6.99609375 6.22265625 C3.99609375 6.22265625 3.99609375 6.22265625 1.99609375 5.22265625 C1.99609375 4.56265625 1.99609375 3.90265625 1.99609375 3.22265625 C-8.33998093 -0.83521011 -18.90152716 -2.33597548 -29.44140625 1.84765625 C-34.28591982 4.11175881 -38.41484834 7.25219982 -42.00390625 11.22265625 C-42.00390625 11.88265625 -42.00390625 12.54265625 -42.00390625 13.22265625 C-42.66390625 13.22265625 -43.32390625 13.22265625 -44.00390625 13.22265625 C-44.00390625 13.88265625 -44.00390625 14.54265625 -44.00390625 15.22265625 C-44.99390625 15.55265625 -45.98390625 15.88265625 -47.00390625 16.22265625 C-43.21803639 8.01079361 -37.11581048 2.92030871 -29.00390625 -0.77734375 C-28.24722656 -1.1434375 -27.49054688 -1.50953125 -26.7109375 -1.88671875 C-18.43617282 -4.60915215 -7.80380601 -3.67160519 0 0 Z " fill="#080807" transform="translate(502.00390625,60.77734375)"/>
<path d="M0 0 C3.94801914 3.05074207 4.63896121 7.44303726 5.30076599 12.13009644 C6.02672088 18.95660231 6.1296238 25.70954535 6.09765625 32.5703125 C6.0962413 33.73255341 6.09482635 34.89479431 6.09336853 36.09225464 C6.08781342 39.76986366 6.07526941 43.44740967 6.0625 47.125 C6.05747919 49.63281161 6.05291731 52.14062419 6.04882812 54.6484375 C6.03785872 60.76564616 6.02116589 66.88281857 6 73 C5.67 73 5.34 73 5 73 C4.98786972 72.08823502 4.98786972 72.08823502 4.97549438 71.15805054 C4.88865969 64.76500417 4.78913389 58.37224023 4.68261719 51.97949219 C4.64460717 49.60161119 4.60970851 47.22367816 4.578125 44.84570312 C5.11030588 22.29601903 5.11030588 22.29601903 -1 1 C-0.67 0.67 -0.34 0.34 0 0 Z " fill="#000000" transform="translate(309,69)"/>
<path d="M0 0 C0.33 0.66 0.66 1.32 1 2 C1.66 2.33 2.32 2.66 3 3 C2.67 4.32 2.34 5.64 2 7 C0.68 7 -0.64 7 -2 7 C-1.01 8.485 -1.01 8.485 0 10 C-1.01126953 9.55527344 -1.01126953 9.55527344 -2.04296875 9.1015625 C-5.43173167 7.83916997 -8.77134551 7.10308784 -12.3125 6.375 C-14.19388672 5.98441406 -14.19388672 5.98441406 -16.11328125 5.5859375 C-17.06589844 5.39257812 -18.01851563 5.19921875 -19 5 C-18.34 4.67 -17.68 4.34 -17 4 C-16.67 3.34 -16.34 2.68 -16 2 C-13.69 2.66 -11.38 3.32 -9 4 C-9 3.34 -9 2.68 -9 2 C-6.94921875 1.77213542 -4.8984375 1.54427083 -2.84765625 1.31640625 C-0.98859771 1.18113386 -0.98859771 1.18113386 0 0 Z " fill="#1B1B19" transform="translate(503,64)"/>
<path d="M0 0 C9.04169551 4.14575558 13.34977296 12.09018065 17 21 C19.12015822 27.28946457 19.24762605 33.41039563 19 40 C18.67 40 18.34 40 18 40 C17.91024902 39.45174561 17.82049805 38.90349121 17.72802734 38.33862305 C15.38848283 24.454315 13.31299187 12.35770351 1.5390625 3.33984375 C1.03117187 2.89769531 0.52328125 2.45554687 0 2 C0 1.34 0 0.68 0 0 Z " fill="#050504" transform="translate(415,64)"/>
<path d="M0 0 C3.65316671 1.24976756 4.78065836 1.67098753 7 5 C6.34 5 5.68 5 5 5 C4.67 5.99 4.34 6.98 4 8 C3.01 8.33 2.02 8.66 1 9 C1.8971875 9.6496875 1.8971875 9.6496875 2.8125 10.3125 C4.70783087 11.77461239 6.3528593 13.27050227 8 15 C3.16743695 14.58578031 1.17320782 12.53586014 -2 9 C-1.2265625 7.329375 -1.2265625 7.329375 -0.4375 5.625 C0.2740625 3.830625 0.2740625 3.830625 1 2 C0.67 1.34 0.34 0.68 0 0 Z " fill="#151514" transform="translate(466,130)"/>
<path d="M0 0 C0.66 0 1.32 0 2 0 C0.46055194 3.75831734 -1.8252091 5.97788832 -4.8125 8.6875 C-5.66457031 9.47511719 -6.51664063 10.26273438 -7.39453125 11.07421875 C-10.06125234 13.04527347 -11.74189639 13.65488669 -15 14 C-15 12.68 -15 11.36 -15 10 C-14.67 10.66 -14.34 11.32 -14 12 C-9.26361927 9.29349673 -5.23028729 6.54664688 -1.8125 2.25 C-1.214375 1.5075 -0.61625 0.765 0 0 Z " fill="#040505" transform="translate(532,184)"/>
<path d="M0 0 C3.37251924 2.60603759 4.34793983 5.9377401 5 10 C5.15099977 13.34147889 5.12103741 16.65802271 5 20 C2.98623893 16.97935839 2.75973383 16.16871975 2.5625 12.75 C2.16801572 8.28648347 0.96284018 5.01102124 -1 1 C-0.67 0.67 -0.34 0.34 0 0 Z " fill="#090907" transform="translate(309,69)"/>
<path d="M0 0 C0.66 0.66 1.32 1.32 2 2 C-3.56043956 3.13736264 -3.56043956 3.13736264 -6 2.375 C-9.21371501 1.77242844 -11.23298456 3.44355382 -14 5 C-15.33333333 5.66666667 -16.66666667 6.33333333 -18 7 C-13.24441871 0.30695967 -7.98602345 -1.06689508 0 0 Z " fill="#0C0C0B" transform="translate(571,25)"/>
<path d="M0 0 C0.66 0.33 1.32 0.66 2 1 C0.33333333 2.66666667 -1.33333333 4.33333333 -3 6 C-3.70125 6.763125 -4.4025 7.52625 -5.125 8.3125 C-7 10 -7 10 -10 10 C-10 9.34 -10 8.68 -10 8 C-8.38542921 6.56418526 -6.70780925 5.19855217 -5 3.875 C-4.071875 3.15054688 -3.14375 2.42609375 -2.1875 1.6796875 C-1.465625 1.12539062 -0.74375 0.57109375 0 0 Z " fill="#1A1A1A" transform="translate(528,186)"/>
<path d="M0 0 C2.27543867 0.56510234 4.54528452 1.15275985 6.8125 1.75 C8.07707031 2.07484375 9.34164063 2.3996875 10.64453125 2.734375 C14.09524556 4.03592498 15.2200328 4.85031826 17 8 C16.32582031 7.70351562 15.65164063 7.40703125 14.95703125 7.1015625 C11.56826833 5.83916997 8.22865449 5.10308784 4.6875 4.375 C2.80611328 3.98441406 2.80611328 3.98441406 0.88671875 3.5859375 C-0.06589844 3.39257812 -1.01851563 3.19921875 -2 3 C-1.34 2.67 -0.68 2.34 0 2 C0 1.34 0 0.68 0 0 Z " fill="#070705" transform="translate(486,66)"/>
<path d="M0 0 C0.66 0 1.32 0 2 0 C1.52309796 1.62566606 1.04340334 3.25051311 0.5625 4.875 C0.29566406 5.77992187 0.02882813 6.68484375 -0.24609375 7.6171875 C-1 10 -1 10 -2 12 C-0.68 12.33 0.64 12.66 2 13 C0.02 13 -1.96 13 -4 13 C-3.40895235 8.15340923 -2.02055843 4.39251833 0 0 Z " fill="#080808" transform="translate(371,82)"/>
<path d="M0 0 C1.32 0 2.64 0 4 0 C4.02689216 1.47906892 4.04634621 2.95827483 4.0625 4.4375 C4.07410156 5.26121094 4.08570313 6.08492188 4.09765625 6.93359375 C4 9 4 9 3 10 C1.31391034 10.07205511 -0.37500659 10.08386068 -2.0625 10.0625 C-2.98160156 10.05347656 -3.90070312 10.04445313 -4.84765625 10.03515625 C-5.55792969 10.02355469 -6.26820313 10.01195313 -7 10 C-7 9.67 -7 9.34 -7 9 C-4.03 9 -1.06 9 2 9 C1.51515724 4.35413108 1.51515724 4.35413108 0 0 Z " fill="#090908" transform="translate(573,60)"/>
<path d="M0 0 C1.32 0 2.64 0 4 0 C2.55049545 3.7910119 0.84827434 7.3874638 -1 11 C-1.66 10.67 -2.32 10.34 -3 10 C-2.649375 9.05125 -2.29875 8.1025 -1.9375 7.125 C-0.64973223 4.12939828 -0.64973223 4.12939828 -2 2 C-1.34 2 -0.68 2 0 2 C0 1.34 0 0.68 0 0 Z " fill="#090907" transform="translate(462,79)"/>
<path d="M0 0 C0.66 0.33 1.32 0.66 2 1 C1.67 1.66 1.34 2.32 1 3 C2.32 3.33 3.64 3.66 5 4 C1.77932216 5.07355928 -0.62824034 5 -4 5 C-6.26566343 5.43941523 -6.26566343 5.43941523 -8 6 C-6.1875 4 -6.1875 4 -4 2 C-3.01 2 -2.02 2 -1 2 C-0.67 1.34 -0.34 0.68 0 0 Z " fill="#0E0E0C" transform="translate(283,74)"/>
<path d="M0 0 C3.63 0 7.26 0 11 0 C11 0.33 11 0.66 11 1 C10.21625 1.144375 9.4325 1.28875 8.625 1.4375 C6.03578982 1.87798925 6.03578982 1.87798925 4 3 C3.67 3.66 3.34 4.32 3 5 C3 4.01 3 3.02 3 2 C2.01 1.67 1.02 1.34 0 1 C0 0.67 0 0.34 0 0 Z " fill="#171715" transform="translate(220,60)"/>
<path d="M0 0 C0 4.38968456 -2.12805101 5.76905739 -5 9 C-5.33 8.01 -5.66 7.02 -6 6 C-2.83636364 1.41818182 -2.83636364 1.41818182 0 0 Z " fill="#060606" transform="translate(548,166)"/>
<path d="M0 0 C0.99 0.33 1.98 0.66 3 1 C1.02 3.31 -0.96 5.62 -3 8 C-3.66 7.34 -4.32 6.68 -5 6 C-3.35 4.02 -1.7 2.04 0 0 Z " fill="#050504" transform="translate(377,74)"/>
<path d="M0 0 C-1.49097658 3.7952131 -3.75700849 5.61042731 -7 8 C-4.18918919 0 -4.18918919 0 0 0 Z " fill="#050505" transform="translate(542,175)"/>
<path d="" fill="#FFFFFF" transform="translate(0,0)"/>
<path d="" fill="#FFFFFF" transform="translate(0,0)"/>
<path d="" fill="#FFFFFF" transform="translate(0,0)"/>
<path d="" fill="#FFFFFF" transform="translate(0,0)"/>
<path d="" fill="#FFFFFF" transform="translate(0,0)"/>
<path d="" fill="#FFFFFF" transform="translate(0,0)"/>
<path d="" fill="#FFFFFF" transform="translate(0,0)"/>
<path d="" fill="#FFFFFF" transform="translate(0,0)"/>
<path d="" fill="#FFFFFF" transform="translate(0,0)"/>
<path d="" fill="#FFFFFF" transform="translate(0,0)"/>
<path d="" fill="#FFFFFF" transform="translate(0,0)"/>
<path d="" fill="#FEFFFF" transform="translate(0,0)"/>
<path d="" fill="#FFFFFF" transform="translate(0,0)"/>
<path d="" fill="#FFFFFF" transform="translate(0,0)"/>
<path d="" fill="#FFFFFF" transform="translate(0,0)"/>
<path d="" fill="#FFFFFF" transform="translate(0,0)"/>
<path d="" fill="#FFFFFF" transform="translate(0,0)"/>
<path d="" fill="#FFFFFF" transform="translate(0,0)"/>
<path d="" fill="#FFFFFF" transform="translate(0,0)"/>
<path d="" fill="#FFFFFF" transform="translate(0,0)"/>
<path d="" fill="#FFFFFF" transform="translate(0,0)"/>
<path d="" fill="#FFFFFF" transform="translate(0,0)"/>
<path d="" fill="#FFFFFF" transform="translate(0,0)"/>
<path d="" fill="#FFFFFF" transform="translate(0,0)"/>
<path d="" fill="#FFFFFF" transform="translate(0,0)"/>
<path d="" fill="#FFFFFF" transform="translate(0,0)"/>
<path d="" fill="#FFFFFF" transform="translate(0,0)"/>
<path d="" fill="#FFFFFF" transform="translate(0,0)"/>
<path d="" fill="#FFFFFF" transform="translate(0,0)"/>
<path d="" fill="#FFFFFF" transform="translate(0,0)"/>
<path d="" fill="#FFFFFF" transform="translate(0,0)"/>
<path d="" fill="#FFFFFF" transform="translate(0,0)"/>
<path d="" fill="#FFFFFF" transform="translate(0,0)"/>
<path d="" fill="#FFFFFF" transform="translate(0,0)"/>
<path d="" fill="#FFFFFF" transform="translate(0,0)"/>
<path d="" fill="#FFFFFF" transform="translate(0,0)"/>
<path d="" fill="#FFFFFF" transform="translate(0,0)"/>
<path d="" fill="#FFFFFF" transform="translate(0,0)"/>
<path d="" fill="#FFFFFF" transform="translate(0,0)"/>
<path d="" fill="#FFFFFF" transform="translate(0,0)"/>
<path d="" fill="#FFFFFF" transform="translate(0,0)"/>
<path d="" fill="#000000" transform="translate(0,0)"/>
<path d="" fill="#FFFFFF" transform="translate(0,0)"/>
<path d="" fill="#FFFFFF" transform="translate(0,0)"/>
<path d="" fill="#FFFFFF" transform="translate(0,0)"/>
<path d="" fill="#FFFFFF" transform="translate(0,0)"/>
<path d="" fill="#FFFFFF" transform="translate(0,0)"/>
<path d="" fill="#FFFFFF" transform="translate(0,0)"/>
<path d="" fill="#FFFFFF" transform="translate(0,0)"/>
<path d="" fill="#FFFFFF" transform="translate(0,0)"/>
<path d="" fill="#FFFFFF" transform="translate(0,0)"/>
<path d="" fill="#FFFFFF" transform="translate(0,0)"/>
<path d="" fill="#FFFFFF" transform="translate(0,0)"/>
<path d="" fill="#FFFFFF" transform="translate(0,0)"/>
<path d="" fill="#FFFFFF" transform="translate(0,0)"/>
<path d="" fill="#000000" transform="translate(0,0)"/>
<path d="" fill="#FFFFFF" transform="translate(0,0)"/>
<path d="" fill="#FFFFFF" transform="translate(0,0)"/>
<path d="" fill="#FFFFFF" transform="translate(0,0)"/>
<path d="" fill="#FFFFFF" transform="translate(0,0)"/>
<path d="" fill="#FFFFFF" transform="translate(0,0)"/>
<path d="" fill="#FFFFFF" transform="translate(0,0)"/>
<path d="" fill="#FFFFFF" transform="translate(0,0)"/>
<path d="" fill="#FFFFFF" transform="translate(0,0)"/>
<path d="" fill="#FFFFFF" transform="translate(0,0)"/>
<path d="" fill="#FFFFFF" transform="translate(0,0)"/>
<path d="" fill="#FFFFFF" transform="translate(0,0)"/>
<path d="" fill="#FFFFFF" transform="translate(0,0)"/>
</svg>
