<?xml version="1.0" encoding="UTF-8"?>
<svg version="1.1" xmlns="http://www.w3.org/2000/svg" width="462" height="197">
<path d="M0 0 C0 0.66 0 1.32 0 2 C0.5775 2.20625 1.155 2.4125 1.75 2.625 C5.97362737 5.20610561 7.51062608 8.28943996 8.8351593 12.91921997 C10.78071387 21.5603797 11.40333635 29.65237079 11.29296875 38.4921875 C11.28872391 39.80414093 11.28447906 41.11609436 11.28010559 42.46780396 C11.26881982 45.90372874 11.23950011 49.33925412 11.20599365 52.77502441 C11.17493488 56.30178428 11.16152495 59.82861065 11.14648438 63.35546875 C11.11460878 70.23715669 11.06198102 77.11851788 11 84 C4.4 84 -2.2 84 -9 84 C-9.01458252 82.3507251 -9.02916504 80.7014502 -9.04418945 79.00219727 C-9.10235414 72.85745034 -9.17958667 66.71306289 -9.26245117 60.56860352 C-9.29722663 57.91394197 -9.32367187 55.25957104 -9.34643555 52.60473633 C-9.38013789 48.77916148 -9.43246396 44.9542147 -9.48828125 41.12890625 C-9.49467117 39.95042618 -9.5010611 38.77194611 -9.50764465 37.55775452 C-9.58215666 27.88342127 -9.58215666 27.88342127 -13 19 C-16.96393938 17.03831447 -20.43370503 16.67962148 -24.75 17.5625 C-30.47169648 21.21802831 -33.34039777 25.46817027 -35 32 C-35.44317742 36.05279049 -35.48796688 40.08178452 -35.51171875 44.15625 C-35.52966995 45.29912476 -35.54762115 46.44199951 -35.56611633 47.61950684 C-35.62001447 51.2463011 -35.65405004 54.87296528 -35.6875 58.5 C-35.72069107 60.96876802 -35.75518237 63.43751892 -35.79101562 65.90625 C-35.87572955 71.93740585 -35.94263887 77.96852449 -36 84 C-42.6 84 -49.2 84 -56 84 C-56.15347854 73.82064891 -56.30229053 63.64125864 -56.4429636 53.46172237 C-56.50847357 48.73460611 -56.57600171 44.00753689 -56.64819336 39.28051758 C-56.71782952 34.71591011 -56.78209733 30.15125533 -56.84269524 25.58651924 C-56.86671005 23.84784784 -56.89263603 22.10920173 -56.92053413 20.3705883 C-56.95937594 17.92930931 -56.99132777 15.4880276 -57.02172852 13.04663086 C-57.03467453 12.33308945 -57.04762054 11.61954803 -57.06095886 10.88438416 C-57.1071089 6.46348744 -56.72288529 2.34489914 -56 -2 C-53.60458732 -2.19585135 -51.20907226 -2.38192107 -48.8125 -2.5625 C-47.80219727 -2.64661133 -47.80219727 -2.64661133 -46.77148438 -2.73242188 C-42.982869 -3.00963763 -39.68172206 -2.96511161 -36 -2 C-35.67 -0.35 -35.34 1.3 -35 3 C-31.95871087 1.89407668 -29.21327296 0.58262406 -26.4375 -1.0625 C-17.18040469 -6.28013554 -9.33853988 -3.84528113 0 0 Z " fill="#FEFEFE" transform="translate(173,49)"/>
<path d="M0 0 C0.88602402 0.00222061 1.77204803 0.00444122 2.68492126 0.00672913 C3.68588333 0.00680466 4.6868454 0.00688019 5.71813965 0.00695801 C6.80666733 0.01211929 7.89519501 0.01728058 9.01670837 0.02259827 C10.67928932 0.02472069 10.67928932 0.02472069 12.37545776 0.02688599 C15.93168281 0.03250418 19.48784596 0.04505977 23.04405212 0.05775452 C25.44834809 0.06276717 27.85264504 0.06733048 30.25694275 0.07142639 C36.16516716 0.08247952 42.07335522 0.09923535 47.98155212 0.12025452 C48.01042724 3.76607139 48.02830797 7.41185915 48.04405212 11.05775452 C48.05243103 12.09867249 48.06080994 13.13959045 48.06944275 14.21205139 C48.07266541 15.20140686 48.07588806 16.19076233 48.07920837 17.21009827 C48.08444519 18.12654114 48.08968201 19.04298401 48.09507751 19.98719788 C47.98155212 22.12025452 47.98155212 22.12025452 46.98155212 23.12025452 C44.76299948 23.20808993 42.54166716 23.2272006 40.32139587 23.21791077 C39.32469627 23.21578835 39.32469627 23.21578835 38.30786133 23.21362305 C36.17821313 23.2080097 34.04866873 23.19545505 31.91905212 23.18275452 C30.47829843 23.17774123 29.03754309 23.17317803 27.5967865 23.16908264 C24.0583411 23.15803597 20.51995674 23.14076243 16.98155212 23.12025452 C17.10723572 24.78314514 17.10723572 24.78314514 17.23545837 26.47962952 C17.33865518 27.9431478 17.44150138 29.40669083 17.54405212 30.87025452 C17.60012634 31.59986389 17.65620056 32.32947327 17.713974 33.08119202 C17.96569431 36.77308984 17.88900741 39.49043337 16.98155212 43.12025452 C27.21155212 43.12025452 37.44155212 43.12025452 47.98155212 43.12025452 C47.98155212 50.05025452 47.98155212 56.98025452 47.98155212 64.12025452 C37.75155212 64.12025452 27.52155212 64.12025452 16.98155212 64.12025452 C16.98155212 81.28025452 16.98155212 98.44025452 16.98155212 116.12025452 C9.79910255 117.01806071 4.04669204 116.84282564 -3.01844788 116.12025452 C-3.82085097 100.98808184 -4.12622315 85.93475467 -3.93251038 70.78431702 C-3.91065375 68.75692671 -3.88920855 66.72953192 -3.8681488 64.70213318 C-3.8232663 60.51251158 -3.77410252 56.32297063 -3.72157288 52.13343811 C-3.65440411 46.75457129 -3.59749808 41.3756511 -3.54354286 35.99663734 C-3.50088734 31.83780966 -3.45343942 27.6790478 -3.40444565 23.52029037 C-3.38153767 21.53387878 -3.36002947 19.54745054 -3.33993912 17.56100845 C-3.31133266 14.81195522 -3.27639474 12.06305685 -3.23963928 9.31410217 C-3.23231277 8.49356354 -3.22498627 7.6730249 -3.21743774 6.82762146 C-3.11691042 0.18569841 -3.11691042 0.18569841 0 0 Z " fill="#FEFEFE" transform="translate(22.018447875976563,16.879745483398438)"/>
<path d="M0 0 C0.87398438 0.67675781 0.87398438 0.67675781 1.765625 1.3671875 C1.765625 2.0271875 1.765625 2.6871875 1.765625 3.3671875 C2.425625 3.3671875 3.085625 3.3671875 3.765625 3.3671875 C12.27695468 12.70219425 15.85602038 25.97770314 15.765625 38.3671875 C14.96826935 38.37527435 14.1709137 38.38336121 13.34939575 38.39169312 C5.84463854 38.46954953 -1.65992172 38.55681257 -9.16444206 38.65471458 C-13.02283998 38.70471645 -16.88121 38.75104586 -20.73974609 38.7890625 C-24.4616309 38.82586657 -28.18328444 38.87221265 -31.90497208 38.92525101 C-33.32673217 38.94382104 -34.74854188 38.95891933 -36.17037582 38.97053146 C-38.15779004 38.98734865 -40.14507783 39.01751977 -42.13232422 39.04833984 C-43.83109207 39.06832535 -43.83109207 39.06832535 -45.56417847 39.0887146 C-48.38684433 39.0996924 -48.38684433 39.0996924 -50.234375 41.3671875 C-49.81935513 50.84879535 -46.70766239 58.34798721 -39.796875 64.7421875 C-33.92725169 69.86662385 -29.02516566 70.82481279 -21.37109375 70.68359375 C-13.88666933 69.9286269 -7.43563039 66.80486359 -2.234375 61.3671875 C-0.06940333 58.11972999 1.89154001 54.7897186 3.765625 51.3671875 C6.84308408 52.58183967 9.82739304 53.84365982 12.765625 55.3671875 C10.41400329 64.53851217 4.44852983 71.99891462 -3.234375 77.3671875 C-13.33223342 82.84032658 -24.29727675 84.18331311 -35.546875 81.3046875 C-46.65902769 77.36989245 -53.44087983 68.28544988 -58.546875 58.0546875 C-63.77731768 45.22657594 -63.40849254 30.14079018 -58.234375 17.3671875 C-53.63305093 7.12924144 -47.45184746 -0.71328873 -37.234375 -5.6328125 C-34.046875 -6.8203125 -34.046875 -6.8203125 -31.234375 -7.6328125 C-30.2753125 -7.9421875 -30.2753125 -7.9421875 -29.296875 -8.2578125 C-18.60609527 -10.20159063 -8.97192734 -5.44522634 0 0 Z M-41.8984375 11.0546875 C-45.97119105 16.03026819 -47.78317359 21.1550271 -49.234375 27.3671875 C-43.6007087 28.5661047 -38.09557761 28.4944956 -32.3671875 28.46484375 C-30.81510086 28.46272133 -30.81510086 28.46272133 -29.23165894 28.46055603 C-25.94086768 28.45497789 -22.65014554 28.44242938 -19.359375 28.4296875 C-17.12239682 28.42466968 -14.88541757 28.42010726 -12.6484375 28.41601562 C-7.17705992 28.40501562 -1.7057224 28.38829927 3.765625 28.3671875 C3.30922756 26.93344269 2.847188 25.5014932 2.3828125 24.0703125 C2.12612793 23.27270508 1.86944336 22.47509766 1.60498047 21.65332031 C-0.86741645 14.91931079 -5.74731557 9.55747028 -11.984375 6.1171875 C-22.09381249 1.44252279 -33.91942791 2.96329749 -41.8984375 11.0546875 Z " fill="#FDFDFD" transform="translate(288.234375,52.6328125)"/>
<path d="M0 0 C2.41046372 2.03616811 4.65611807 4.17564932 6.88671875 6.40625 C8.03486872 4.10995006 8.19441684 2.32926914 8.44921875 -0.21875 C8.59359375 -1.6625 8.73796875 -3.10625 8.88671875 -4.59375 C12.51671875 -4.59375 16.14671875 -4.59375 19.88671875 -4.59375 C19.55671875 23.78625 19.22671875 52.16625 18.88671875 81.40625 C15.58671875 81.40625 12.28671875 81.40625 8.88671875 81.40625 C8.65885417 79.12760417 8.43098958 76.84895833 8.203125 74.5703125 C7.99581761 72.36352195 7.99581761 72.36352195 6.88671875 70.40625 C6.49742187 70.85355469 6.108125 71.30085938 5.70703125 71.76171875 C-0.78942226 78.7820798 -8.2685189 82.80806876 -17.83984375 83.64453125 C-28.01505767 83.90508255 -35.60424014 81.9062261 -43.42578125 75.21875 C-53.8329151 65.1084916 -58.80552596 53.25964786 -59.36328125 38.78125 C-59.17396931 24.94044389 -54.22782799 12.76159721 -44.77734375 2.7421875 C-31.17811247 -9.18206514 -14.56711022 -10.98591677 0 0 Z M-41.609375 16.21875 C-48.07277959 25.62006576 -48.89442748 35.28049591 -48.11328125 46.40625 C-46.33752514 54.93201878 -42.0189506 62.99432024 -34.765625 68.0390625 C-27.3482427 72.26033698 -20.13210217 74.00484884 -11.671875 71.7578125 C-2.69142503 68.10315982 2.96915318 62.38900331 6.9765625 53.640625 C10.44968074 45.1143433 10.22908707 33.20074252 7.44921875 24.40625 C4.25809512 17.11385831 -1.21853339 10.54699746 -8.30078125 6.78125 C-21.45325584 1.96712182 -33.03465046 5.71421507 -41.609375 16.21875 Z " fill="#FEFDFD" transform="translate(376.11328125,51.59375)"/>
<path d="M0 0 C5.32107698 1.79003972 8.57430453 6.95850132 11.04296875 11.79296875 C12.18961848 18.81619833 11.22222879 23.34693252 7.10546875 29.23046875 C5.92766869 30.7795586 4.74133053 32.32222989 3.54296875 33.85546875 C2.88296875 34.84546875 2.22296875 35.83546875 1.54296875 36.85546875 C5.00796875 37.35046875 5.00796875 37.35046875 8.54296875 37.85546875 C8.54296875 66.23546875 8.54296875 94.61546875 8.54296875 123.85546875 C2.27296875 123.85546875 -3.99703125 123.85546875 -10.45703125 123.85546875 C-10.45703125 95.47546875 -10.45703125 67.09546875 -10.45703125 37.85546875 C-8.80703125 37.85546875 -7.15703125 37.85546875 -5.45703125 37.85546875 C-5.95203125 36.37046875 -5.95203125 36.37046875 -6.45703125 34.85546875 C-6.45703125 34.19546875 -6.45703125 33.53546875 -6.45703125 32.85546875 C-7.4031845 31.27275979 -8.38868183 29.71342679 -9.39453125 28.16796875 C-12.55711454 22.97176217 -14.06793576 19.04574786 -12.89453125 12.91796875 C-10.52338532 7.86639699 -6.35347499 -0.37373382 0 0 Z M-0.45703125 6.85546875 C-0.12703125 9.82546875 0.20296875 12.79546875 0.54296875 15.85546875 C0.87296875 15.85546875 1.20296875 15.85546875 1.54296875 15.85546875 C1.21296875 12.88546875 0.88296875 9.91546875 0.54296875 6.85546875 C0.21296875 6.85546875 -0.11703125 6.85546875 -0.45703125 6.85546875 Z M0.54296875 16.85546875 C0.04796875 24.28046875 0.04796875 24.28046875 -0.45703125 31.85546875 C1.89416274 28.32867776 1.75740327 26.8266739 1.66796875 22.66796875 C1.64992188 21.58128906 1.631875 20.49460937 1.61328125 19.375 C1.59007813 18.54355469 1.566875 17.71210938 1.54296875 16.85546875 C1.21296875 16.85546875 0.88296875 16.85546875 0.54296875 16.85546875 Z " fill="#FEFEFE" transform="translate(92.45703125,9.14453125)"/>
<path d="M0 0 C0 3.96 0 7.92 0 12 C-2.475 11.505 -2.475 11.505 -5 11 C-10.14878166 10.60661136 -10.14878166 10.60661136 -15 12 C-15 18.6 -15 25.2 -15 32 C-8.07 32.495 -8.07 32.495 -1 33 C-1 36.63 -1 40.26 -1 44 C-5.95 44 -10.9 44 -16 44 C-16.0093457 46.32095703 -16.01869141 48.64191406 -16.02832031 51.03320312 C-16.06215996 58.72073345 -16.11774765 66.4079973 -16.18390274 74.09531403 C-16.22333142 78.75398624 -16.25554243 83.41247074 -16.27099609 88.07128906 C-16.28619315 92.57137009 -16.32069245 97.07093489 -16.36830902 101.57078552 C-16.38309147 103.2834371 -16.39103921 104.9961624 -16.39188385 106.70887756 C-16.40822924 123.2407923 -16.40822924 123.2407923 -21 130 C-21.50063965 130.79672119 -22.0012793 131.59344238 -22.51708984 132.41430664 C-24.12612465 134.63849662 -25.73792902 136.85880312 -27.375 139.0625 C-27.98424316 139.88524414 -28.59348633 140.70798828 -29.22119141 141.55566406 C-50.93780678 170.37376305 -50.93780678 170.37376305 -62 172 C-61.45729172 168.0324991 -59.6158301 166.30280224 -56.7734375 163.5859375 C-55.90589844 162.74160156 -55.03835938 161.89726562 -54.14453125 161.02734375 C-52.3221099 159.28203473 -50.49920627 157.53722915 -48.67578125 155.79296875 C-38.36463403 145.75516564 -28.02893854 133.45693081 -27.81211853 118.42541504 C-27.80636307 117.69173706 -27.8006076 116.95805908 -27.79467773 116.20214844 C-27.78477814 115.42127869 -27.77487854 114.64040894 -27.76467896 113.83587646 C-27.73314627 111.26040659 -27.70833914 108.68491829 -27.68359375 106.109375 C-27.66301711 104.32146735 -27.64202045 102.53356449 -27.62062073 100.7456665 C-27.56547337 96.04394411 -27.51603177 91.34217834 -27.46777344 86.64038086 C-27.41750482 81.84094389 -27.36184675 77.04156977 -27.30664062 72.2421875 C-27.19914879 62.82817871 -27.09768393 53.41411531 -27 44 C-27.63808594 44.01160156 -28.27617187 44.02320313 -28.93359375 44.03515625 C-29.75988281 44.04417969 -30.58617187 44.05320313 -31.4375 44.0625 C-32.67306641 44.07990234 -32.67306641 44.07990234 -33.93359375 44.09765625 C-36 44 -36 44 -37 43 C-37.0979057 41.50261876 -37.12974864 40.00057108 -37.125 38.5 C-37.12886719 37.27796875 -37.12886719 37.27796875 -37.1328125 36.03125 C-37 34 -37 34 -36 33 C-33.34536879 32.54540142 -30.67810862 32.29756762 -28 32 C-27.98018066 31.42556152 -27.96036133 30.85112305 -27.93994141 30.25927734 C-27.84407976 27.63076167 -27.73465126 25.00297509 -27.625 22.375 C-27.5940625 21.47136719 -27.563125 20.56773438 -27.53125 19.63671875 C-27.21554103 12.42803056 -26.47514081 6.19436436 -21 1 C-13.87464745 -3.05434073 -7.73528034 -1.6893141 0 0 Z " fill="#FEFEFD" transform="translate(447,14)"/>
<path d="M0 0 C3.3 0 6.6 0 10 0 C10.97508641 2.92525924 11.11186797 4.72468059 11.08229065 7.76457214 C11.07525116 8.74473801 11.06821167 9.72490387 11.06095886 10.73477173 C11.04801285 11.80867157 11.03506683 12.88257141 11.02172852 13.98901367 C11.01212097 15.12086594 11.00251343 16.2527182 10.99261475 17.41886902 C10.95957321 21.16863119 10.91926033 24.91827872 10.87890625 28.66796875 C10.85461018 31.26442559 10.83076637 33.86088669 10.80735779 36.45735168 C10.75089776 42.59842297 10.68986859 48.73943336 10.62663645 54.88043815 C10.55490185 61.8718729 10.48898779 68.86335871 10.42356598 75.85485494 C10.28886018 90.23663618 10.14662755 104.6183357 10 119 C6.7 119 3.4 119 0 119 C0 79.73 0 40.46 0 0 Z " fill="#FEFEFE" transform="translate(201,14)"/>
<path d="" fill="#000000" transform="translate(0,0)"/>
<path d="" fill="#000000" transform="translate(0,0)"/>
<path d="" fill="#000000" transform="translate(0,0)"/>
<path d="" fill="#000000" transform="translate(0,0)"/>
<path d="" fill="#000000" transform="translate(0,0)"/>
<path d="" fill="#000000" transform="translate(0,0)"/>
<path d="" fill="#000000" transform="translate(0,0)"/>
<path d="" fill="#000000" transform="translate(0,0)"/>
<path d="" fill="#000000" transform="translate(0,0)"/>
<path d="" fill="#000000" transform="translate(0,0)"/>
<path d="" fill="#000000" transform="translate(0,0)"/>
<path d="" fill="#000000" transform="translate(0,0)"/>
<path d="" fill="#000000" transform="translate(0,0)"/>
<path d="" fill="#000000" transform="translate(0,0)"/>
<path d="" fill="#000000" transform="translate(0,0)"/>
<path d="" fill="#000000" transform="translate(0,0)"/>
<path d="" fill="#000000" transform="translate(0,0)"/>
<path d="" fill="#000000" transform="translate(0,0)"/>
<path d="" fill="#000000" transform="translate(0,0)"/>
<path d="" fill="#000000" transform="translate(0,0)"/>
<path d="" fill="#000000" transform="translate(0,0)"/>
<path d="" fill="#000000" transform="translate(0,0)"/>
<path d="" fill="#000000" transform="translate(0,0)"/>
<path d="" fill="#000000" transform="translate(0,0)"/>
<path d="" fill="#000000" transform="translate(0,0)"/>
<path d="" fill="#000000" transform="translate(0,0)"/>
<path d="" fill="#000000" transform="translate(0,0)"/>
<path d="" fill="#000000" transform="translate(0,0)"/>
<path d="" fill="#000000" transform="translate(0,0)"/>
<path d="" fill="#000000" transform="translate(0,0)"/>
<path d="" fill="#000000" transform="translate(0,0)"/>
<path d="" fill="#000000" transform="translate(0,0)"/>
<path d="" fill="#000000" transform="translate(0,0)"/>
<path d="" fill="#000000" transform="translate(0,0)"/>
<path d="" fill="#000000" transform="translate(0,0)"/>
<path d="" fill="#000000" transform="translate(0,0)"/>
<path d="" fill="#000000" transform="translate(0,0)"/>
<path d="" fill="#000000" transform="translate(0,0)"/>
<path d="" fill="#000000" transform="translate(0,0)"/>
<path d="" fill="#000000" transform="translate(0,0)"/>
<path d="" fill="#000000" transform="translate(0,0)"/>
<path d="" fill="#000000" transform="translate(0,0)"/>
<path d="" fill="#000000" transform="translate(0,0)"/>
<path d="" fill="#000000" transform="translate(0,0)"/>
<path d="" fill="#000000" transform="translate(0,0)"/>
<path d="" fill="#000000" transform="translate(0,0)"/>
<path d="" fill="#000000" transform="translate(0,0)"/>
<path d="" fill="#000000" transform="translate(0,0)"/>
<path d="" fill="#000000" transform="translate(0,0)"/>
<path d="" fill="#FFFFFF" transform="translate(0,0)"/>
<path d="" fill="#000000" transform="translate(0,0)"/>
<path d="" fill="#000000" transform="translate(0,0)"/>
<path d="" fill="#000000" transform="translate(0,0)"/>
<path d="" fill="#000000" transform="translate(0,0)"/>
<path d="" fill="#000000" transform="translate(0,0)"/>
<path d="" fill="#000000" transform="translate(0,0)"/>
<path d="" fill="#000000" transform="translate(0,0)"/>
<path d="" fill="#000000" transform="translate(0,0)"/>
<path d="" fill="#000000" transform="translate(0,0)"/>
<path d="" fill="#000000" transform="translate(0,0)"/>
<path d="" fill="#000000" transform="translate(0,0)"/>
<path d="" fill="#000000" transform="translate(0,0)"/>
<path d="" fill="#000000" transform="translate(0,0)"/>
<path d="" fill="#000000" transform="translate(0,0)"/>
<path d="" fill="#000000" transform="translate(0,0)"/>
<path d="" fill="#000000" transform="translate(0,0)"/>
</svg>
