<?xml version="1.0" encoding="UTF-8"?>
<svg version="1.1" xmlns="http://www.w3.org/2000/svg" width="544" height="335">
<path d="M0 0 C0.70697021 0.06985107 1.41394043 0.13970215 2.14233398 0.21166992 C7.37317956 0.85019777 12.13879293 2.39219786 17.0625 4.1875 C15.68463999 7.98002557 13.91101979 11.07876546 11.6875 14.4375 C7.60220609 20.83321078 4.36481452 27.58337627 1.125 34.4375 C-14.41840199 67.2791259 -32.01205087 101.83468761 -68.02734375 115.5078125 C-78.32578472 119.17228843 -88.70127053 120.38342282 -99.5625 120.375 C-100.8633252 120.3759668 -100.8633252 120.3759668 -102.19042969 120.37695312 C-109.57882265 120.31695141 -116.66485546 119.53606985 -123.9375 118.1875 C-123.9375 114.1567111 -122.22126451 111.26588511 -120.4375 107.75 C-119.89609375 106.67854736 -119.89609375 106.67854736 -119.34375 105.58544922 C-116.00932145 99.11486325 -112.2166051 93.0797598 -107.9375 87.1875 C-107.3703125 86.39601563 -106.803125 85.60453125 -106.21875 84.7890625 C-96.55848432 72.03581702 -84.26209587 60.07056391 -70.9375 51.1875 C-81.20605149 54.99680136 -89.74470859 62.09236158 -97.9375 69.1875 C-98.43958984 69.6211084 -98.94167969 70.0547168 -99.45898438 70.50146484 C-115.89146696 84.79483819 -130.28600831 103.86995585 -135 125.5 C-135.16048828 126.17611328 -135.32097656 126.85222656 -135.48632812 127.54882812 C-139.79238793 146.93474395 -139.28914491 166.78224135 -139.31835938 186.52148438 C-139.32783151 190.33496753 -139.36148073 194.14763595 -139.3984375 197.9609375 C-139.39339203 199.1306308 -139.38834656 200.3003241 -139.38314819 201.50546265 C-139.39641144 202.58824493 -139.40967468 203.67102722 -139.42333984 204.78662109 C-139.42618988 205.73604584 -139.42903992 206.68547058 -139.43197632 207.66366577 C-140.08507581 210.92427433 -141.39004688 212.12086802 -143.9375 214.1875 C-145.9375 214.75390625 -145.9375 214.75390625 -147.9375 214.75 C-148.9275 214.78287109 -148.9275 214.78287109 -149.9375 214.81640625 C-153.09004544 213.82507849 -154.13985988 211.89667452 -155.9375 209.1875 C-156.44302368 206.08784485 -156.44302368 206.08784485 -156.45166016 202.5715332 C-156.45878525 201.92671997 -156.46591034 201.28190674 -156.47325134 200.61755371 C-156.49250134 198.49081562 -156.48424916 196.36507754 -156.4765625 194.23828125 C-156.48648645 192.74153722 -156.4984341 191.24480537 -156.51229858 189.74809265 C-156.5446654 185.80120699 -156.55504721 181.85459803 -156.55914307 177.90759277 C-156.56892399 170.89271094 -156.60952342 163.87794655 -156.6640625 156.86328125 C-156.66968704 156.1151158 -156.67531158 155.36695034 -156.68110657 154.5961132 C-156.80642308 139.98615152 -157.61833814 125.73176142 -161.1875 111.5 C-161.40220947 110.62625732 -161.61691895 109.75251465 -161.83813477 108.85229492 C-165.74018076 93.5922333 -172.03625418 80.51185065 -182.203125 68.4140625 C-183.9375 66.1875 -183.9375 66.1875 -185.0390625 63.9765625 C-186.21444621 61.63601581 -187.55755702 61.13947719 -189.9375 60.1875 C-189.9375 59.5275 -189.9375 58.8675 -189.9375 58.1875 C-190.47117187 57.94644531 -191.00484375 57.70539063 -191.5546875 57.45703125 C-194.58693857 55.84148765 -197.27026239 53.87666431 -200.0625 51.875 C-226.20203487 33.51430345 -257.25347077 31.61691387 -287.93334961 36.953125 C-293.13602975 37.9326768 -298.00839234 39.2706248 -302.9375 41.1875 C-302.35226562 41.81269531 -301.76703125 42.43789062 -301.1640625 43.08203125 C-294.29130459 50.79066512 -288.53151826 59.07126924 -282.875 67.6875 C-273.54106464 82.57851537 -273.54106464 82.57851537 -262.18359375 95.875 C-260.9375 97.1875 -260.9375 97.1875 -260.9375 99.1875 C-260.06931641 99.57035156 -260.06931641 99.57035156 -259.18359375 99.9609375 C-256.71057534 101.3114206 -255.02708354 102.85934081 -253 104.8125 C-236.95986243 119.23294941 -217.35262924 125.56225184 -196.0625 125.5 C-194.96808594 125.51611328 -193.87367188 125.53222656 -192.74609375 125.54882812 C-185.96347617 125.55284151 -180.0813142 124.72443464 -173.58935547 122.73510742 C-170.68476652 122.13531061 -168.77549037 122.41294773 -165.9375 123.1875 C-164.9375 126.1875 -164.9375 126.1875 -165.9375 129.1875 C-167.94140625 130.1015625 -167.94140625 130.1015625 -170.5 130.8125 C-171.32628906 131.05226562 -172.15257812 131.29203125 -173.00390625 131.5390625 C-197.71239898 137.00059352 -224.82094695 133.44770676 -246.25 119.875 C-252.33906542 115.86667553 -257.72168759 111.26629458 -262.9375 106.1875 C-263.96423828 105.23617187 -263.96423828 105.23617187 -265.01171875 104.265625 C-275.96041961 93.85467959 -284.55555349 80.29037873 -292.5 67.5 C-297.90716457 58.90847755 -304.70766821 49.17412811 -312.69921875 42.77734375 C-313.9375 41.1875 -313.9375 41.1875 -313.625 38.5 C-313.398125 37.736875 -313.17125 36.97375 -312.9375 36.1875 C-302.69725343 32.46511152 -292.7097266 29.89080079 -281.9375 28.1875 C-280.84945068 28.01476562 -279.76140137 27.84203125 -278.64038086 27.6640625 C-272.44533499 26.8667572 -266.23789869 26.94291421 -260 26.9375 C-259.30430908 26.93682526 -258.60861816 26.93615051 -257.8918457 26.93545532 C-247.6120069 26.95131561 -237.90763636 27.35520468 -227.9375 30.1875 C-226.69871094 30.5278125 -225.45992188 30.868125 -224.18359375 31.21875 C-210.4945532 35.37460231 -198.75573131 41.82481254 -187.9375 51.1875 C-187.02226562 51.88359375 -186.10703125 52.5796875 -185.1640625 53.296875 C-184.06191406 54.23273438 -184.06191406 54.23273438 -182.9375 55.1875 C-182.9375 55.8475 -182.9375 56.5075 -182.9375 57.1875 C-181.9475 57.5175 -180.9575 57.8475 -179.9375 58.1875 C-178.33203125 59.74609375 -178.33203125 59.74609375 -176.75 61.625 C-176.22019531 62.24246094 -175.69039062 62.85992187 -175.14453125 63.49609375 C-173.9375 65.1875 -173.9375 65.1875 -173.9375 67.1875 C-173.2775 67.1875 -172.6175 67.1875 -171.9375 67.1875 C-171.2775 69.1675 -170.6175 71.1475 -169.9375 73.1875 C-169.2775 73.1875 -168.6175 73.1875 -167.9375 73.1875 C-159.98676067 86.03383345 -154.62135356 99.41099549 -150.11621094 113.81298828 C-149.8587207 114.62880371 -149.60123047 115.44461914 -149.3359375 116.28515625 C-149.11341309 117.01355713 -148.89088867 117.74195801 -148.66162109 118.49243164 C-148.0658712 120.39282746 -148.0658712 120.39282746 -145.9375 121.1875 C-145.999375 120.341875 -146.06125 119.49625 -146.125 118.625 C-145.90428021 114.57847059 -144.58149309 111.87004453 -142.9375 108.1875 C-141.47962658 101.93947107 -141.9123817 95.60684814 -142.06445312 89.23828125 C-142.25679478 73.64729278 -136.83336292 59.48293928 -128.9375 46.1875 C-128.2775 46.1875 -127.6175 46.1875 -126.9375 46.1875 C-126.7828125 45.31158203 -126.7828125 45.31158203 -126.625 44.41796875 C-125.32717104 40.20739867 -121.90222277 37.34241253 -118.9375 34.1875 C-118.27492188 33.46046875 -117.61234375 32.7334375 -116.9296875 31.984375 C-101.78121595 15.99742717 -81.96458641 7.42515607 -60.9375 2.1875 C-59.8841748 1.91848877 -59.8841748 1.91848877 -58.80957031 1.64404297 C-40.18107026 -2.8892822 -18.98424903 -1.89822941 0 0 Z M-148.9375 122.1875 C-148.6075 123.1775 -148.2775 124.1675 -147.9375 125.1875 C-147.6075 124.1975 -147.2775 123.2075 -146.9375 122.1875 C-147.5975 122.1875 -148.2575 122.1875 -148.9375 122.1875 Z " fill="#F3F3F3" transform="translate(416.9375,79.8125)"/>
<path d="M0 0 C0.69569092 -0.00067474 1.39138184 -0.00134949 2.1081543 -0.00204468 C12.3879931 0.01381561 22.09236364 0.41770468 32.0625 3.25 C33.30128906 3.5903125 34.54007812 3.930625 35.81640625 4.28125 C49.5054468 8.43710231 61.24426869 14.88731254 72.0625 24.25 C73.43535156 25.29414063 73.43535156 25.29414063 74.8359375 26.359375 C75.57070312 26.98328125 76.30546875 27.6071875 77.0625 28.25 C77.0625 28.91 77.0625 29.57 77.0625 30.25 C78.0525 30.58 79.0425 30.91 80.0625 31.25 C81.66796875 32.80859375 81.66796875 32.80859375 83.25 34.6875 C83.77980469 35.30496094 84.30960938 35.92242187 84.85546875 36.55859375 C86.0625 38.25 86.0625 38.25 86.0625 40.25 C86.7225 40.25 87.3825 40.25 88.0625 40.25 C89.0525 43.22 89.0525 43.22 90.0625 46.25 C90.7225 46.25 91.3825 46.25 92.0625 46.25 C103.37068217 65.44188216 103.37068217 65.44188216 106.0625 75.25 C105.7325 75.91 105.4025 76.57 105.0625 77.25 C103.0625 74.25 103.0625 74.25 103.0625 71.25 C101.4125 70.92 99.7625 70.59 98.0625 70.25 C97.7325 71.24 97.4025 72.23 97.0625 73.25 C97.7225 73.58 98.3825 73.91 99.0625 74.25 C98.0725 76.23 98.0725 76.23 97.0625 78.25 C96.77117187 77.28320312 96.47984375 76.31640625 96.1796875 75.3203125 C93.66569942 67.24060235 90.72435079 60.36683104 86.0625 53.25 C85.4295748 52.06670505 84.80386653 50.879504 84.1875 49.6875 C81.95470458 45.67991847 78.80374162 42.48843318 75.671875 39.16796875 C74.0625 37.25 74.0625 37.25 74.0625 35.25 C72.7425 34.59 71.4225 33.93 70.0625 33.25 C70.0625 32.59 70.0625 31.93 70.0625 31.25 C69.52882813 31.00894531 68.99515625 30.76789063 68.4453125 30.51953125 C65.41306143 28.90398765 62.72973761 26.93916431 59.9375 24.9375 C33.79796513 6.57680345 2.74652923 4.67941387 -27.93334961 10.015625 C-33.13602975 10.9951768 -38.00839234 12.3331248 -42.9375 14.25 C-42.35226563 14.87519531 -41.76703125 15.50039062 -41.1640625 16.14453125 C-34.29130459 23.85316512 -28.53151826 32.13376924 -22.875 40.75 C-13.54106464 55.64101537 -13.54106464 55.64101537 -2.18359375 68.9375 C-0.9375 70.25 -0.9375 70.25 -0.9375 72.25 C-0.06931641 72.63285156 -0.06931641 72.63285156 0.81640625 73.0234375 C3.28942466 74.3739206 4.97291646 75.92184081 7 77.875 C23.04013757 92.29544941 42.64737076 98.62475184 63.9375 98.5625 C65.03191406 98.57861328 66.12632812 98.59472656 67.25390625 98.61132812 C74.03652383 98.61534151 79.9186858 97.78693464 86.41064453 95.79760742 C89.31523348 95.19781061 91.22450963 95.47544773 94.0625 96.25 C95.0625 99.25 95.0625 99.25 94.0625 102.25 C92.05859375 103.1640625 92.05859375 103.1640625 89.5 103.875 C88.67371094 104.11476563 87.84742188 104.35453125 86.99609375 104.6015625 C62.28760102 110.06309352 35.17905305 106.51020676 13.75 92.9375 C7.66093458 88.92917553 2.27831241 84.32879458 -2.9375 79.25 C-3.96423828 78.29867187 -3.96423828 78.29867187 -5.01171875 77.328125 C-15.96041961 66.91717959 -24.55555349 53.35287873 -32.5 40.5625 C-37.90716457 31.97097755 -44.70766821 22.23662811 -52.69921875 15.83984375 C-53.9375 14.25 -53.9375 14.25 -53.625 11.5625 C-53.398125 10.799375 -53.17125 10.03625 -52.9375 9.25 C-42.69725343 5.52761152 -32.7097266 2.95330079 -21.9375 1.25 C-20.84945068 1.07726562 -19.76140137 0.90453125 -18.64038086 0.7265625 C-12.44533499 -0.0707428 -6.23789869 0.00541421 0 0 Z " fill="#CBCBCB" transform="translate(156.9375,106.75)"/>
<path d="M0 0 C2 1.375 2 1.375 4 3 C4 3.66 4 4.32 4 5 C4.57878906 5.25523437 5.15757812 5.51046875 5.75390625 5.7734375 C8.22692466 7.1239206 9.91041646 8.67184081 11.9375 10.625 C27.97763757 25.04544941 47.58487076 31.37475184 68.875 31.3125 C69.96941406 31.32861328 71.06382812 31.34472656 72.19140625 31.36132812 C78.97402383 31.36534151 84.8561858 30.53693464 91.34814453 28.54760742 C94.25273348 27.94781061 96.16200963 28.22544773 99 29 C100 32 100 32 99 35 C96.99609375 35.9140625 96.99609375 35.9140625 94.4375 36.625 C93.61121094 36.86476562 92.78492188 37.10453125 91.93359375 37.3515625 C67.22558658 42.81298619 40.1159988 39.2606347 18.6875 25.6875 C9.98071688 19.95252221 2.55243274 13.10432471 -4 5 C-3.01 5 -2.02 5 -1 5 C-0.67 3.35 -0.34 1.7 0 0 Z " fill="#CFCFCF" transform="translate(152,174)"/>
<path d="M0 0 C1 3 1 3 0 6 C-2.00390625 6.9140625 -2.00390625 6.9140625 -4.5625 7.625 C-5.38878906 7.86476562 -6.21507812 8.10453125 -7.06640625 8.3515625 C-14.64617927 10.02698503 -22.07951348 10.18265173 -29.8125 10.1875 C-30.82892578 10.19974609 -31.84535156 10.21199219 -32.89257812 10.22460938 C-39.6618052 10.23755245 -46.47497471 9.96879071 -53 8 C-53.33 7.34 -53.66 6.68 -54 6 C-56.52733235 5.34444881 -56.52733235 5.34444881 -59 5 C-58.67 3.68 -58.34 2.36 -58 1 C-51.125 1.875 -51.125 1.875 -50 3 C-45.49388398 3.10582461 -40.98943594 2.94305999 -36.48461914 2.81298828 C-34.23527087 2.7513099 -31.98613094 2.70916757 -29.73632812 2.66796875 C-21.97619451 2.47717139 -14.98217328 1.88266582 -7.5090332 -0.46777344 C-4.67655831 -1.0686098 -2.77275508 -0.74903958 0 0 Z " fill="#E4E4E4" transform="translate(251,203)"/>
<path d="M0 0 C15.5718898 0.50231903 29.75328506 7.30205651 43 15 C43 15.99 43 16.98 43 18 C42.01 18.495 42.01 18.495 41 19 C41.495 20.98 41.495 20.98 42 23 C38.46099165 21.66655221 35.2719625 20.07785638 32 18.1875 C20.2636938 11.70956581 8.27505548 8.11889921 -5 6.875 C-6.30517578 6.74544922 -6.30517578 6.74544922 -7.63671875 6.61328125 C-9.75729499 6.40355393 -11.87858079 6.20102158 -14 6 C-14 5.67 -14 5.34 -14 5 C-8.72 5 -3.44 5 2 5 C2.33 3.68 2.66 2.36 3 1 C2.01 0.67 1.02 0.34 0 0 Z " fill="#C0C0C0" transform="translate(176,108)"/>
<path d="M0 0 C2.15295403 -0.00217886 4.30538905 -0.02032457 6.45825195 -0.03930664 C7.8378075 -0.04224244 9.21736547 -0.04422599 10.59692383 -0.04516602 C11.84513916 -0.0492749 13.09335449 -0.05338379 14.37939453 -0.05761719 C17.86593272 0.18581173 20.6118308 0.92848241 23.85864258 2.18530273 C23.52864258 3.50530273 23.19864258 4.82530273 22.85864258 6.18530273 C11.09444456 6.75797731 -0.67565874 7.28593356 -12.45385742 7.43530273 C-13.28820312 7.45657227 -14.12254883 7.4778418 -14.98217773 7.49975586 C-20.74313596 7.53348794 -20.74313596 7.53348794 -22.88037109 5.66479492 C-23.29649658 5.1765625 -23.71262207 4.68833008 -24.14135742 4.18530273 C-22.8707856 3.70544307 -21.59988895 3.22644343 -20.32885742 2.74780273 C-19.62116211 2.4809668 -18.9134668 2.21413086 -18.18432617 1.93920898 C-12.15881523 -0.28435433 -6.34356477 -0.00071996 0 0 Z " fill="#DEDEDE" transform="translate(155.141357421875,106.814697265625)"/>
<path d="M0 0 C1 3 1 3 0 6 C-2.00390625 6.9140625 -2.00390625 6.9140625 -4.5625 7.625 C-5.38878906 7.86476562 -6.21507812 8.10453125 -7.06640625 8.3515625 C-14.64617927 10.02698503 -22.07951348 10.18265173 -29.8125 10.1875 C-30.82892578 10.19974609 -31.84535156 10.21199219 -32.89257812 10.22460938 C-39.80224603 10.23782098 -46.25044803 9.47055416 -53 8 C-49.85586183 7.14419177 -47.61803504 7.02053835 -44.375 7.4375 C-39.07520334 7.98327852 -33.82312677 8.14974356 -28.5 8.1875 C-27.71028809 8.20031006 -26.92057617 8.21312012 -26.10693359 8.22631836 C-22.2115215 8.23346205 -20.31470975 8.2098065 -17 6 C-16.34 5.34 -15.68 4.68 -15 4 C-15.66 3.34 -16.32 2.68 -17 2 C-15.10787298 1.46585888 -13.21108364 0.94821671 -11.3125 0.4375 C-10.25675781 0.14746094 -9.20101562 -0.14257812 -8.11328125 -0.44140625 C-4.99304618 -1.00124767 -3.02306766 -0.84690764 0 0 Z " fill="#ABABAB" transform="translate(251,203)"/>
<path d="M0 0 C5.52576927 0.42717917 8.58938276 1.62290281 12.875 5.125 C13.82117188 5.87007812 14.76734375 6.61515625 15.7421875 7.3828125 C18.54739406 10.63452253 18.85300256 12.75667379 19 17 C18.67 17.99 18.34 18.98 18 20 C17.01 19.67 16.02 19.34 15 19 C15 18.34 15 17.68 15 17 C13.68 16.34 12.36 15.68 11 15 C11 14.34 11 13.68 11 13 C10.443125 12.7525 9.88625 12.505 9.3125 12.25 C5.51764312 10.19872601 2.64618587 8.29237175 0.6875 4.375 C0 2 0 2 0 0 Z " fill="#D1D1D1" transform="translate(216,125)"/>
<path d="M0 0 C1.11117187 0.40992188 2.22234375 0.81984375 3.3671875 1.2421875 C11.19542045 4.09121732 18.74040517 6.6889532 27 8 C27 8.33 27 8.66 27 9 C24.36 9.33 21.72 9.66 19 10 C19 9.34 19 8.68 19 8 C16.69 8 14.38 8 12 8 C11.67 8.99 11.34 9.98 11 11 C12.65 11 14.3 11 16 11 C16.33 11.66 16.66 12.32 17 13 C9.14503688 12.69196223 2.95940803 9.46909516 -4 6 C-3.34 5.67 -2.68 5.34 -2 5 C-2 4.34 -2 3.68 -2 3 C-1.34 2.67 -0.68 2.34 0 2 C0 1.34 0 0.68 0 0 Z " fill="#B2B2B2" transform="translate(181,197)"/>
<path d="M0 0 C4.1556484 1.33267345 6.14019002 2.89910263 8.75 6.375 C9.34296875 7.14585937 9.9359375 7.91671875 10.546875 8.7109375 C11.9218313 10.87686329 12.56520623 12.49421488 13 15 C12.34 15 11.68 15 11 15 C11 15.66 11 16.32 11 17 C8.10194702 17 6.44781827 16.42055065 4.33203125 14.43359375 C1.40063728 10.87553599 -0.38337702 8.19950793 -0.375 3.5 C-0.25125 2.345 -0.1275 1.19 0 0 Z " fill="#D3D3D3" transform="translate(140,162)"/>
<path d="M0 0 C-2.31 0.66 -4.62 1.32 -7 2 C-4.23776722 4.76223278 -1.79293383 4.57856291 2 5 C2 5.33 2 5.66 2 6 C0.12612523 6.3396019 -1.74916697 6.67138691 -3.625 7 C-4.66914063 7.185625 -5.71328125 7.37125 -6.7890625 7.5625 C-9.90574865 7.98715797 -12.85930812 8.07545206 -16 8 C-16.33 6.68 -16.66 5.36 -17 4 C-18.98 4 -20.96 4 -23 4 C-19.46332072 1.64221381 -16.15994448 1.05715643 -12.0625 0.3125 C-11.34642578 0.17005859 -10.63035156 0.02761719 -9.89257812 -0.11914062 C-3.41023091 -1.32669557 -3.41023091 -1.32669557 0 0 Z " fill="#B2B2B2" transform="translate(139,109)"/>
<path d="M0 0 C0 0.66 0 1.32 0 2 C-1.010625 2.37125 -2.02125 2.7425 -3.0625 3.125 C-8.33426401 5.38737646 -12.44553323 8.92737764 -15.875 13.5 C-18.50085717 16.58924373 -21.45753851 18.43556366 -24.87890625 20.5703125 C-26.84746387 21.89718559 -28.3920802 23.2636521 -30 25 C-30.66 24.67 -31.32 24.34 -32 24 C-25.58670806 17.26425205 -18.75145481 11.16763654 -11 6 C-11.66 5.34 -12.32 4.68 -13 4 C-11.59248779 3.13083113 -10.1735479 2.28014851 -8.75 1.4375 C-7.96109375 0.96183594 -7.1721875 0.48617187 -6.359375 -0.00390625 C-3.69155375 -1.13022151 -2.65498232 -1.0169313 0 0 Z " fill="#323232" transform="translate(357,125)"/>
<path d="M0 0 C5.19863564 -0.31191814 8.61602577 0.07735051 13 3 C13.875 5.1875 13.875 5.1875 14 7 C13.01 7 12.02 7 11 7 C11 7.66 11 8.32 11 9 C7.01781501 8.72217314 5.25090158 8.20726652 2.125 5.625 C0 3 0 3 0 0 Z " fill="#D8D8D8" transform="translate(168,193)"/>
<path d="M0 0 C0 0.99 0 1.98 0 3 C0.99 3.33 1.98 3.66 3 4 C4.203125 6.21484375 4.203125 6.21484375 5.25 8.9375 C5.60578125 9.83339844 5.9615625 10.72929687 6.328125 11.65234375 C7 14 7 14 6 16 C4 13 4 13 4 10 C2.35 9.67 0.7 9.34 -1 9 C-1.33 9.99 -1.66 10.98 -2 12 C-1.34 12.33 -0.68 12.66 0 13 C-0.66 14.32 -1.32 15.64 -2 17 C-2.508783 15.44033782 -3.00663469 13.87710759 -3.5 12.3125 C-3.7784375 11.44238281 -4.056875 10.57226562 -4.34375 9.67578125 C-5.01446538 6.94101915 -5.34315103 4.79763406 -5 2 C-2 0 -2 0 0 0 Z " fill="#C2C2C2" transform="translate(256,168)"/>
<path d="M0 0 C0.33 0 0.66 0 1 0 C1.10134036 7.61707204 1.17144061 15.23397053 1.21972656 22.8515625 C1.23985375 25.44342546 1.26715816 28.03524296 1.30175781 30.62695312 C1.35022501 34.35037449 1.37295816 38.07319599 1.390625 41.796875 C1.41127014 42.95741394 1.43191528 44.11795288 1.45318604 45.31365967 C1.45348816 46.39447815 1.45379028 47.47529663 1.45410156 48.58886719 C1.46298401 49.53928894 1.47186646 50.48971069 1.48101807 51.46893311 C0.85719375 54.75143159 -0.42749523 55.93968432 -3 58 C-5.78142043 58.50755847 -8.1457229 58.19028514 -11 58 C-11 57.67 -11 57.34 -11 57 C-9.9275 56.71125 -8.855 56.4225 -7.75 56.125 C-3.86970932 55.07763897 -3.86970932 55.07763897 0 53 C0 35.51 0 18.02 0 0 Z " fill="#7B7B7B" transform="translate(276,236)"/>
<path d="M0 0 C2.60608273 2.5162178 4.89381685 5.05134359 7 8 C6.67 8.66 6.34 9.32 6 10 C5.34 9.67 4.68 9.34 4 9 C3.67 10.65 3.34 12.3 3 14 C-2.80205656 8.35475578 -2.80205656 8.35475578 -5 5 C-5 4.34 -5 3.68 -5 3 C-3.35 3 -1.7 3 0 3 C0 2.01 0 1.02 0 0 Z " fill="#C0C0C0" transform="translate(137,154)"/>
<path d="M0 0 C7.57142857 3 7.57142857 3 10 6 C9.01 6.66 8.02 7.32 7 8 C7.33 9.32 7.66 10.64 8 12 C3.22390502 10.35821735 -0.79382904 7.73453298 -5 5 C-4.38125 4.855625 -3.7625 4.71125 -3.125 4.5625 C-0.96741678 4.06847775 -0.96741678 4.06847775 1 3 C0.67 2.01 0.34 1.02 0 0 Z " fill="#B9B9B9" transform="translate(210,119)"/>
<path d="M0 0 C2.97 0.99 5.94 1.98 9 3 C7.02 3.99 7.02 3.99 5 5 C5 5.99 5 6.98 5 8 C2 9 2 9 -1.1875 7.5625 C-2.115625 7.046875 -3.04375 6.53125 -4 6 C-3.34 5.67 -2.68 5.34 -2 5 C-2 4.34 -2 3.68 -2 3 C-1.34 2.67 -0.68 2.34 0 2 C0 1.34 0 0.68 0 0 Z " fill="#BDBDBD" transform="translate(181,197)"/>
<path d="M0 0 C2.86319855 1.04983947 3.8499428 1.73398952 5.375 4.4375 C5.684375 5.7059375 5.684375 5.7059375 6 7 C5.01 8.485 5.01 8.485 4 10 C3.34 10 2.68 10 2 10 C1.67 10.66 1.34 11.32 1 12 C0.44191911 10.56879256 -0.09596462 9.12969645 -0.625 7.6875 C-0.92664063 6.88699219 -1.22828125 6.08648437 -1.5390625 5.26171875 C-1.69117187 4.51535156 -1.84328125 3.76898438 -2 3 C-1.34 2.01 -0.68 1.02 0 0 Z " fill="#D9D9D9" transform="translate(125,138)"/>
<path d="M0 0 C0.66 0.33 1.32 0.66 2 1 C0 4 0 4 -3 5 C-4.608969 6.66304234 -4.608969 6.66304234 -6.1875 8.6875 C-9.68667564 12.83716342 -13.53800626 15.94034715 -18 19 C-16.6952877 16.12066182 -15.30730853 14.05896303 -13.06640625 11.8359375 C-12.49986328 11.27132812 -11.93332031 10.70671875 -11.34960938 10.125 C-10.75986328 9.5475 -10.17011719 8.97 -9.5625 8.375 C-8.97662109 7.78976563 -8.39074219 7.20453125 -7.78710938 6.6015625 C-5.26007718 4.10034562 -2.97575385 1.9838359 0 0 Z " fill="#9C9C9C" transform="translate(310,103)"/>
<path d="M0 0 C0.99 0 1.98 0 3 0 C3.99 2.31 4.98 4.62 6 7 C5.34 7 4.68 7 4 7 C4 7.66 4 8.32 4 9 C2.35 8.67 0.7 8.34 -1 8 C-1.625 5.6875 -1.625 5.6875 -2 3 C-1.34 2.01 -0.68 1.02 0 0 Z " fill="#C8C8C8" transform="translate(147,170)"/>
<path d="M0 0 C3.57104439 1.87949705 5.54744301 3.17053157 7 7 C6.01 6.67 5.02 6.34 4 6 C3.01 6.495 3.01 6.495 2 7 C1.67 7.99 1.34 8.98 1 10 C-1 8.1875 -1 8.1875 -3 6 C-3 5.01 -3 4.02 -3 3 C-2.01 3 -1.02 3 0 3 C0 2.01 0 1.02 0 0 Z " fill="#BEBEBE" transform="translate(115,125)"/>
<path d="M0 0 C3.465 1.98 3.465 1.98 7 4 C5.02 4.99 5.02 4.99 3 6 C3 6.99 3 7.98 3 9 C0 9 0 9 -2.1875 7 C-2.785625 6.34 -3.38375 5.68 -4 5 C-2.68 3.35 -1.36 1.7 0 0 Z " fill="#B6B6B6" transform="translate(167,188)"/>
<path d="M0 0 C0.92039062 0.29197266 0.92039062 0.29197266 1.859375 0.58984375 C-1.97767565 4.00669865 -5.68975422 6.99350246 -10.140625 9.58984375 C-11.89211665 11.1722965 -11.89211665 11.1722965 -13.140625 12.58984375 C-13.800625 12.25984375 -14.460625 11.92984375 -15.140625 11.58984375 C-3.20354766 -0.61381844 -3.20354766 -0.61381844 0 0 Z " fill="#8B8B8B" transform="translate(340.140625,137.41015625)"/>
<path d="M0 0 C0.99 0 1.98 0 3 0 C1.43358249 4.30764815 -0.68336156 8.06171464 -3 12 C-3.66 11.01 -4.32 10.02 -5 9 C-4.67 8.01 -4.34 7.02 -4 6 C-3.34 6 -2.68 6 -2 6 C-2 5.34 -2 4.68 -2 4 C-1.34 4 -0.68 4 0 4 C0 2.68 0 1.36 0 0 Z " fill="#A1A1A1" transform="translate(427,90)"/>
<path d="M0 0 C0.33 0.99 0.66 1.98 1 3 C-2.3 5.97 -5.6 8.94 -9 12 C-9 9 -9 9 -7.03125 6.73828125 C-5.77828125 5.53751953 -5.77828125 5.53751953 -4.5 4.3125 C-3.6646875 3.50425781 -2.829375 2.69601563 -1.96875 1.86328125 C-1.3190625 1.24839844 -0.669375 0.63351563 0 0 Z " fill="#636363" transform="translate(324,150)"/>
<path d="M0 0 C0 0.66 0 1.32 0 2 C0.66 2.33 1.32 2.66 2 3 C1.01 3.99 0.02 4.98 -1 6 C-1 5.34 -1 4.68 -1 4 C-2.32 4 -3.64 4 -5 4 C-5.33 3.01 -5.66 2.02 -6 1 C-4 0 -4 0 0 0 Z " fill="#F9F9F9" transform="translate(210,119)"/>
<path d="M0 0 C2.475 0.495 2.475 0.495 5 1 C3.25 5.875 3.25 5.875 1 7 C0.67 4.69 0.34 2.38 0 0 Z " fill="#969696" transform="translate(429,83)"/>
<path d="M0 0 C0 3.46877176 -0.61849799 5.82254537 -2 9 C-4.125 9.875 -4.125 9.875 -6 10 C-4.6302836 6.00499382 -2.74277578 3.19990508 0 0 Z " fill="#8E8E8E" transform="translate(310,166)"/>
<path d="M0 0 C1.32 1.32 2.64 2.64 4 4 C2.35 4.33 0.7 4.66 -1 5 C-0.67 3.35 -0.34 1.7 0 0 Z M-4 5 C-3.01 5 -2.02 5 -1 5 C-0.67 6.32 -0.34 7.64 0 9 C-1.32 7.68 -2.64 6.36 -4 5 Z " fill="#A2A2A2" transform="translate(152,174)"/>
<path d="M0 0 C1.65 0.33 3.3 0.66 5 1 C2.19195732 3.96404505 -0.18315774 6.44499019 -4 8 C-4 7.01 -4 6.02 -4 5 C-3.01 4.67 -2.02 4.34 -1 4 C-0.26676204 1.98491642 -0.26676204 1.98491642 0 0 Z " fill="#8C8C8C" transform="translate(324,139)"/>
<path d="M0 0 C0.66 0.33 1.32 0.66 2 1 C-0.13478166 4.20217249 -1.62795029 5.27285259 -5 7 C-5.99 7 -6.98 7 -8 7 C-5.36 4.69 -2.72 2.38 0 0 Z " fill="#838383" transform="translate(310,103)"/>
<path d="M0 0 C0.66 0 1.32 0 2 0 C0.125 3.875 0.125 3.875 -1 5 C-3.67058851 5.14115161 -6.32432238 5.04247107 -9 5 C-9 4.67 -9 4.34 -9 4 C-7.88625 3.71125 -6.7725 3.4225 -5.625 3.125 C-1.99708908 2.30758671 -1.99708908 2.30758671 0 0 Z " fill="#A7A7A7" transform="translate(274,289)"/>
<path d="M0 0 C0.99 0 1.98 0 3 0 C3.33 0.99 3.66 1.98 4 3 C3.34 3 2.68 3 2 3 C2 3.66 2 4.32 2 5 C1.01 5 0.02 5 -1 5 C-1.33 4.01 -1.66 3.02 -2 2 C-1.34 1.34 -0.68 0.68 0 0 Z " fill="#F5F5F5" transform="translate(149,174)"/>
<path d="M0 0 C0.33 1.32 0.66 2.64 1 4 C0.34 4 -0.32 4 -1 4 C-1.33 4.66 -1.66 5.32 -2 6 C-2.99 6 -3.98 6 -5 6 C-3.63016497 2.83884224 -3.0109362 2.0072908 0 0 Z " fill="#B8B8B8" transform="translate(316,160)"/>
<path d="M0 0 C0 0.66 0 1.32 0 2 C-1.98 2.66 -3.96 3.32 -6 4 C-6 3.34 -6 2.68 -6 2 C-6.66 1.67 -7.32 1.34 -8 1 C-4.93251126 -0.86240388 -3.40254489 -1.2151946 0 0 Z " fill="#474747" transform="translate(357,125)"/>
<path d="M0 0 C-1.43120744 0.55808089 -2.87030355 1.09596462 -4.3125 1.625 C-5.11300781 1.92664063 -5.91351563 2.22828125 -6.73828125 2.5390625 C-7.48464844 2.69117187 -8.23101562 2.84328125 -9 3 C-9.99 2.34 -10.98 1.68 -12 1 C-3.96428571 -1.27678571 -3.96428571 -1.27678571 0 0 Z " fill="#616161" transform="translate(360,83)"/>
<path d="" fill="#000000" transform="translate(0,0)"/>
<path d="" fill="#000000" transform="translate(0,0)"/>
<path d="" fill="#000000" transform="translate(0,0)"/>
<path d="" fill="#000000" transform="translate(0,0)"/>
<path d="" fill="#000000" transform="translate(0,0)"/>
<path d="" fill="#000000" transform="translate(0,0)"/>
<path d="" fill="#000000" transform="translate(0,0)"/>
<path d="" fill="#000000" transform="translate(0,0)"/>
<path d="" fill="#000000" transform="translate(0,0)"/>
<path d="" fill="#000000" transform="translate(0,0)"/>
<path d="" fill="#000000" transform="translate(0,0)"/>
<path d="" fill="#000000" transform="translate(0,0)"/>
<path d="" fill="#000000" transform="translate(0,0)"/>
<path d="" fill="#000000" transform="translate(0,0)"/>
<path d="" fill="#000000" transform="translate(0,0)"/>
<path d="" fill="#000000" transform="translate(0,0)"/>
<path d="" fill="#000000" transform="translate(0,0)"/>
<path d="" fill="#000000" transform="translate(0,0)"/>
<path d="" fill="#000000" transform="translate(0,0)"/>
<path d="" fill="#000000" transform="translate(0,0)"/>
<path d="" fill="#000000" transform="translate(0,0)"/>
<path d="" fill="#000000" transform="translate(0,0)"/>
<path d="" fill="#000000" transform="translate(0,0)"/>
<path d="" fill="#000000" transform="translate(0,0)"/>
<path d="" fill="#000000" transform="translate(0,0)"/>
<path d="" fill="#000000" transform="translate(0,0)"/>
<path d="" fill="#000000" transform="translate(0,0)"/>
<path d="" fill="#000000" transform="translate(0,0)"/>
<path d="" fill="#000000" transform="translate(0,0)"/>
<path d="" fill="#000000" transform="translate(0,0)"/>
<path d="" fill="#000000" transform="translate(0,0)"/>
<path d="" fill="#000000" transform="translate(0,0)"/>
<path d="" fill="#000000" transform="translate(0,0)"/>
<path d="" fill="#000000" transform="translate(0,0)"/>
<path d="" fill="#000000" transform="translate(0,0)"/>
<path d="" fill="#000000" transform="translate(0,0)"/>
<path d="" fill="#000000" transform="translate(0,0)"/>
<path d="" fill="#000000" transform="translate(0,0)"/>
<path d="" fill="#000000" transform="translate(0,0)"/>
<path d="" fill="#000000" transform="translate(0,0)"/>
<path d="" fill="#000000" transform="translate(0,0)"/>
<path d="" fill="#000000" transform="translate(0,0)"/>
<path d="" fill="#000000" transform="translate(0,0)"/>
<path d="" fill="#000000" transform="translate(0,0)"/>
<path d="" fill="#000000" transform="translate(0,0)"/>
<path d="" fill="#000000" transform="translate(0,0)"/>
<path d="" fill="#000000" transform="translate(0,0)"/>
<path d="" fill="#000000" transform="translate(0,0)"/>
<path d="" fill="#000000" transform="translate(0,0)"/>
<path d="" fill="#000000" transform="translate(0,0)"/>
<path d="" fill="#000000" transform="translate(0,0)"/>
<path d="" fill="#000000" transform="translate(0,0)"/>
<path d="" fill="#000000" transform="translate(0,0)"/>
<path d="" fill="#000000" transform="translate(0,0)"/>
<path d="" fill="#000000" transform="translate(0,0)"/>
<path d="" fill="#000000" transform="translate(0,0)"/>
<path d="" fill="#000000" transform="translate(0,0)"/>
<path d="" fill="#000000" transform="translate(0,0)"/>
<path d="" fill="#000000" transform="translate(0,0)"/>
<path d="" fill="#000000" transform="translate(0,0)"/>
<path d="" fill="#000000" transform="translate(0,0)"/>
<path d="" fill="#000000" transform="translate(0,0)"/>
<path d="" fill="#000000" transform="translate(0,0)"/>
<path d="" fill="#000000" transform="translate(0,0)"/>
<path d="" fill="#000000" transform="translate(0,0)"/>
<path d="" fill="#000000" transform="translate(0,0)"/>
<path d="" fill="#000000" transform="translate(0,0)"/>
<path d="" fill="#000000" transform="translate(0,0)"/>
<path d="" fill="#000000" transform="translate(0,0)"/>
<path d="" fill="#000000" transform="translate(0,0)"/>
<path d="" fill="#000000" transform="translate(0,0)"/>
<path d="" fill="#000000" transform="translate(0,0)"/>
<path d="" fill="#000000" transform="translate(0,0)"/>
<path d="" fill="#000000" transform="translate(0,0)"/>
<path d="" fill="#000000" transform="translate(0,0)"/>
<path d="" fill="#000000" transform="translate(0,0)"/>
</svg>
